<?xml version="1.0" encoding="utf-8"?>
<!-- Generator: Adobe Illustrator 16.0.0, SVG Export Plug-In . SVG Version: 6.00 Build 0)  -->
<!DOCTYPE svg PUBLIC "-//W3C//DTD SVG 1.1//EN" "http://www.w3.org/Graphics/SVG/1.1/DTD/svg11.dtd">
<svg version="1.1" id="Layer_1" xmlns="http://www.w3.org/2000/svg" xmlns:xlink="http://www.w3.org/1999/xlink" x="0px" y="0px"
	 width="226.772px" height="226.771px" viewBox="0 0 226.772 226.771" enable-background="new 0 0 226.772 226.771"
	 xml:space="preserve">
<circle fill-rule="evenodd" clip-rule="evenodd" fill="#009B91" cx="114.016" cy="113.805" r="100.994"/>
<path fill-rule="evenodd" clip-rule="evenodd" fill="#FFFFFF" d="M138.55,90.818c-2.617,5.106-5.156,10.085-7.717,15.052
	c-3.424,6.637-6.84,13.277-10.316,19.887c-0.77,1.466-0.631,2.677,0.295,4c3.527,5.043,6.99,10.133,10.504,15.186
	c1.051,1.512,1.086,2.998,0.254,4.609c-4.264,8.27-8.496,16.555-12.756,24.828c-1.211,2.35-2.813,4.18-5.77,4.15
	c-5.143-0.051-8.377-5.09-6.08-9.711c3.092-6.221,6.293-12.389,9.535-18.533c0.842-1.596,0.723-2.871-0.287-4.314
	c-6.016-8.621-11.953-17.297-17.992-25.9c-1.203-1.715-1.337-3.178-0.338-5.06c3.857-7.265,7.581-14.6,11.353-21.909
	c0.108-0.211,0.196-0.434,0.29-0.645c-2.627-1.927-6.926-1.458-9.13,1.178c-1.057,1.265-1.806,2.81-2.568,4.291
	c-2.21,4.29-4.251,8.67-6.563,12.902c-1.842,3.373-5.021,4.125-8.394,2.301c-3.359-1.818-4.65-5.244-2.994-8.51
	c4.262-8.404,8.617-16.762,12.938-25.138c0.611-1.185,1.666-1.54,2.906-1.501c5.191,0.158,10.383,0.449,15.575,0.451
	c3.853,0.001,7.265,1.088,10.56,2.994c5.186,3,10.461,5.846,15.695,8.762C137.857,90.358,138.146,90.562,138.55,90.818z"/>
<path fill-rule="evenodd" clip-rule="evenodd" fill="#FFFFFF" d="M85.575,138.972c2.683-5.163,5.327-10.253,8.04-15.471
	c0.259,0.276,0.459,0.442,0.602,0.648c2.293,3.318,4.558,6.656,6.879,9.954c0.713,1.013,0.74,2.009,0.213,3.034
	c-2.463,4.791-4.938,9.574-7.438,14.344c-0.685,1.307-1.901,1.814-3.419,1.617c-8.9-1.164-17.797-2.346-26.703-3.461
	c-2.813-0.352-4.764-1.871-6.284-4.119c-0.11-0.162-0.19-0.354-0.247-0.541c-1.443-4.75,2.621-9.449,7.496-8.77
	C71.625,137.173,78.55,138.046,85.575,138.972z"/>
<path fill-rule="evenodd" clip-rule="evenodd" fill="#FFFFFF" d="M142.181,96.113c1.637,2.375,3.17,4.606,4.709,6.833
	c0.705,1.018,1.514,1.977,2.115,3.052c1.631,2.92,4.172,4.027,7.398,4.248c3.498,0.239,6.996,0.644,10.461,1.194
	c3.248,0.516,5.035,2.809,5.129,6.115c0.1,3.506-1.521,6.049-4.51,6.749c-1.139,0.267-2.391,0.253-3.566,0.129
	c-5.314-0.562-10.623-1.201-15.932-1.829c-2.221-0.263-4.064-1.368-5.363-3.094c-2.23-2.962-4.328-6.033-6.326-9.156
	c-0.414-0.646-0.486-1.877-0.156-2.571c1.783-3.745,3.74-7.407,5.641-11.097C141.851,96.553,141.955,96.437,142.181,96.113z"/>
<path fill-rule="evenodd" clip-rule="evenodd" fill="#FFFFFF" d="M135.886,56.262c4.646,0.013,9.313,3.113,10.158,7.083
	c0.361,1.692,0.256,3.582-0.066,5.301c-0.682,3.617-2.266,6.896-4.648,9.722c-0.787,0.932-1.748,1.767-2.766,2.442
	c-2.117,1.41-4.34,1.4-6.541,0.102c-4.75-2.801-8.789-10.426-5.27-17.116c0.938-1.782,2.072-3.509,3.377-5.036
	C131.642,56.99,133.744,56.256,135.886,56.262z"/>
</svg>
