<?xml version="1.0" encoding="utf-8"?>
<!-- Generator: Adobe Illustrator 16.0.0, SVG Export Plug-In . SVG Version: 6.00 Build 0)  -->
<!DOCTYPE svg PUBLIC "-//W3C//DTD SVG 1.1//EN" "http://www.w3.org/Graphics/SVG/1.1/DTD/svg11.dtd">
<svg version="1.1" id="Layer_1" xmlns="http://www.w3.org/2000/svg" xmlns:xlink="http://www.w3.org/1999/xlink" x="0px" y="0px"
	 width="226.772px" height="226.771px" viewBox="0 0 226.772 226.771" enable-background="new 0 0 226.772 226.771"
	 xml:space="preserve">
<circle fill-rule="evenodd" clip-rule="evenodd" fill="#009B91" cx="114.716" cy="113.805" r="100.994"/>
<path fill-rule="evenodd" clip-rule="evenodd" fill="#FFFFFF" d="M152.858,106.62c-0.408-3.494-1.217-6.699-2.453-9.779
	c-4.379-10.907-11.51-19.295-22.721-23.479c-15.39-5.744-32.954-1.228-43.558,13.773c-3.867,5.471-6.354,11.506-7.467,18.11
	c-0.033,0.196-0.051,0.397-0.062,0.597c-0.011,0.197-0.003,0.395-0.003,0.655c1.098,0.112,2.17,0.149,3.215,0.341
	c2.729,0.502,4.619,2.543,4.941,5.299c0.116,0.99,0.18,1.992,0.182,2.988c0.012,11.557,0.019,23.115-0.012,34.672
	c-0.002,1.146-0.117,2.33-0.422,3.43c-0.658,2.363-2.293,3.918-4.705,4.246c-2.77,0.375-5.59,0.391-8.311-0.482
	c-3.415-1.096-5.711-3.428-7.098-6.676c-0.338-0.789-0.719-1.24-1.627-1.479c-3.242-0.854-5.641-4.051-5.665-7.51
	c-0.042-6.117-0.083-12.238,0.019-18.354c0.051-3.006,1.537-5.361,4.184-6.822c0.842-0.465,1.061-0.957,1.061-1.854
	c0.018-11.527,2.675-22.348,9.117-32.014c7.479-11.219,17.314-19.576,30.67-22.684c19.515-4.539,36.36,0.514,50.048,15.326
	c8.111,8.777,12.824,19.189,14.32,31.027c0.365,2.887,0.398,5.816,0.537,8.727c0.029,0.611,0.141,0.984,0.75,1.301
	c2.977,1.539,4.455,4.115,4.512,7.383c0.098,5.797,0.09,11.598,0.008,17.395c-0.061,4.223-2.188,6.873-6.219,8.238
	c-0.402,0.135-0.785,0.627-0.971,1.047c-1.771,3.998-4.623,6.74-9.043,7.369c-2.115,0.303-4.322,0.309-6.451,0.09
	c-2.93-0.303-5.123-3.018-5.133-6.178c-0.035-12.758-0.043-25.514,0.004-38.27c0.014-3.713,2.797-6.36,6.516-6.434
	C151.577,106.61,152.131,106.62,152.858,106.62z"/>
</svg>
