<?xml version="1.0" encoding="utf-8"?>
<!-- Generator: Adobe Illustrator 16.0.0, SVG Export Plug-In . SVG Version: 6.00 Build 0)  -->
<!DOCTYPE svg PUBLIC "-//W3C//DTD SVG 1.1//EN" "http://www.w3.org/Graphics/SVG/1.1/DTD/svg11.dtd">
<svg version="1.1" id="Layer_1" xmlns="http://www.w3.org/2000/svg" xmlns:xlink="http://www.w3.org/1999/xlink" x="0px" y="0px"
	 width="226.772px" height="226.771px" viewBox="0 0 226.772 226.771" enable-background="new 0 0 226.772 226.771"
	 xml:space="preserve">
<circle fill-rule="evenodd" clip-rule="evenodd" fill="#009B91" cx="114.016" cy="113.805" r="100.994"/>
<path fill-rule="evenodd" clip-rule="evenodd" fill="#FFFFFF" d="M163.49,161.612c0.002,3.324-2.1,5.951-5.139,6.518
	c-7.924,1.479-15.859,2.893-23.791,4.33c-11.268,2.043-22.536,4.084-33.803,6.127c-0.943,0.17-1.884,0.35-2.827,0.514
	c-1.821,0.316-3.276-0.656-3.608-2.477c-1.302-7.143-2.58-14.293-3.871-21.439c-1.879-10.404-3.764-20.809-5.646-31.215
	c-2.038-11.27-4.075-22.537-6.11-33.807c-0.993-5.497-1.971-10.996-2.973-16.492c-0.365-2.01-0.262-2.219,1.795-2.633
	c20.3-4.086,40.6-8.172,60.902-12.238c3.414-0.684,6.631,1.385,7.365,4.877c0.887,4.215,1.578,8.473,2.348,12.713
	c2.051,11.307,4.104,22.612,6.145,33.92c2.043,11.309,4.072,22.621,6.113,33.93c0.984,5.459,1.98,10.914,2.965,16.373
	C163.433,161.042,163.472,161.479,163.49,161.612z M118.527,100.136c0.424-0.102,0.723-0.189,1.027-0.244
	c2.197-0.395,4.402-0.752,6.594-1.184c1.389-0.275,2.148-1.385,1.965-2.697c-0.178-1.277-1.271-2.139-2.662-2.025
	c-0.713,0.058-1.418,0.227-2.125,0.346c-1.838,0.31-3.674,0.619-5.549,0.936c-0.102-0.377-0.178-0.598-0.219-0.824
	c-0.479-2.67-0.922-5.346-1.436-8.008c-0.252-1.305-1.313-1.984-2.661-1.847c-1.203,0.124-2.088,1.095-2.039,2.384
	c0.033,0.83,0.221,1.657,0.357,2.482c0.365,2.189,0.742,4.377,1.133,6.674c-2.541,0.437-4.936,0.828-7.322,1.266
	c-1.609,0.293-2.533,1.493-2.257,2.836c0.306,1.492,1.515,2.201,3.173,1.912c2.379-0.418,4.766-0.807,7.23-1.221
	c0.28,1.564,0.538,2.971,0.784,4.379c0.883,5.07,1.754,10.143,2.648,15.209c0.297,1.689,1.777,2.547,3.277,1.949
	c1.303-0.52,1.688-1.602,1.346-3.541C120.701,112.712,119.632,106.505,118.527,100.136z"/>
<path fill-rule="evenodd" clip-rule="evenodd" fill="#FFFFFF" d="M62.747,69.983c2.487,1.344,4.831,2.063,7.343,2.172
	c0.118,0.005,0.235,0.042,0.354,0.052c0.728,0.06,1.679-0.14,2.12,0.245c0.416,0.363,0.289,1.342,0.416,2.047
	c3.107,17.195,6.223,34.389,9.326,51.586c2.834,15.705,5.656,31.41,8.485,47.117c0.241,1.334,0.351,2.713,0.767,3.99
	c0.432,1.324,1.162,2.553,1.836,3.977c-1.643-0.203-3.461-0.42-5.275-0.664c-0.431-0.057-0.848-0.221-1.274-0.316
	c-3.308-0.738-5.241-2.654-5.831-6.115c-1.406-8.26-2.985-16.488-4.479-24.732c-1.963-10.834-3.908-21.672-5.865-32.506
	c-2.043-11.307-4.094-22.613-6.134-33.92c-0.609-3.377-1.222-6.753-1.769-10.14C62.632,71.943,62.747,71.071,62.747,69.983z"/>
<path fill-rule="evenodd" clip-rule="evenodd" fill="#FFFFFF" d="M65.061,67.565c0.801-0.332,1.585-0.714,2.404-0.99
	c19.505-6.564,39.012-13.123,58.522-19.672c3.537-1.188,6.523-0.467,8.754,2.522c1.287,1.724,2.051,3.84,3.027,5.792
	c0.092,0.184,0.012,0.451,0.012,0.907c-0.492-0.249-0.881-0.396-1.215-0.624c-1.818-1.232-3.658-2.438-5.416-3.752
	c-0.738-0.551-1.355-0.726-2.271-0.477c-14.971,4.059-29.954,8.078-44.934,12.107c-5.738,1.543-11.473,3.098-17.217,4.619
	c-0.506,0.133-1.066,0.063-1.602,0.088C65.105,67.913,65.083,67.739,65.061,67.565z"/>
<path fill-rule="evenodd" clip-rule="evenodd" fill="#009B91" d="M118.527,100.136c1.105,6.369,2.174,12.576,3.266,18.781
	c0.342,1.939-0.043,3.021-1.346,3.541c-1.5,0.598-2.98-0.26-3.277-1.949c-0.895-5.066-1.766-10.139-2.648-15.209
	c-0.246-1.408-0.504-2.814-0.784-4.379c-2.465,0.414-4.852,0.803-7.23,1.221c-1.658,0.289-2.867-0.42-3.173-1.912
	c-0.275-1.343,0.648-2.543,2.257-2.836c2.387-0.438,4.781-0.829,7.322-1.266c-0.391-2.297-0.768-4.484-1.133-6.674
	c-0.137-0.825-0.324-1.652-0.357-2.482c-0.049-1.289,0.836-2.26,2.039-2.384c1.348-0.138,2.409,0.542,2.661,1.847
	c0.514,2.662,0.957,5.338,1.436,8.008c0.041,0.227,0.117,0.447,0.219,0.824c1.875-0.316,3.711-0.626,5.549-0.936
	c0.707-0.119,1.412-0.288,2.125-0.346c1.391-0.113,2.484,0.748,2.662,2.025c0.184,1.313-0.576,2.422-1.965,2.697
	c-2.191,0.432-4.396,0.789-6.594,1.184C119.25,99.946,118.951,100.034,118.527,100.136z"/>
</svg>
