<?xml version="1.0" encoding="utf-8"?>
<!-- Generator: Adobe Illustrator 16.0.0, SVG Export Plug-In . SVG Version: 6.00 Build 0)  -->
<!DOCTYPE svg PUBLIC "-//W3C//DTD SVG 1.1//EN" "http://www.w3.org/Graphics/SVG/1.1/DTD/svg11.dtd">
<svg version="1.1" id="Layer_1" xmlns="http://www.w3.org/2000/svg" xmlns:xlink="http://www.w3.org/1999/xlink" x="0px" y="0px"
	 width="226.772px" height="226.771px" viewBox="0 0 226.772 226.771" enable-background="new 0 0 226.772 226.771"
	 xml:space="preserve">
<circle fill-rule="evenodd" clip-rule="evenodd" fill="#009B91" cx="114.016" cy="113.805" r="100.994"/>
<path fill-rule="evenodd" clip-rule="evenodd" fill="#FFFFFF" d="M89.845,144.384c-5.714,0.059-11.257-1.18-16.818-2.273
	c-1.565-0.309-3.108-0.725-4.676-1.021c-1.106-0.207-1.896-0.752-2.435-1.736c-1.664-3.049-3.295-6.117-5.046-9.117
	c-1.266-2.168-2.708-4.232-4.06-6.352c-1.976-3.094-3.924-6.205-5.918-9.287c-1.167-1.807-2.396-3.574-3.604-5.354
	c-2.488-3.668-4.99-7.325-7.461-11.004c-0.352-0.523-0.623-1.123-0.817-1.725c-0.347-1.072-0.401-2.137,0.575-2.971
	c0.924-0.791,2.469-1.006,3.469-0.309c0.737,0.514,1.403,1.191,1.947,1.912c3.301,4.368,6.556,8.772,9.834,13.159
	c0.285,0.383,0.613,0.738,0.941,1.088c0.527,0.559,1.152,1.273,1.892,0.633c0.257-0.225,0.031-1.271-0.251-1.793
	c-0.703-1.295-1.531-2.529-2.371-3.744c-3.676-5.331-7.38-10.641-11.057-15.97c-0.945-1.368-1.586-2.86-1.584-4.571
	c0.003-2.176,1.931-3.623,3.914-2.738c1.01,0.451,1.996,1.243,2.661,2.131c4.146,5.531,8.196,11.135,12.276,16.715
	c0.66,0.904,1.298,1.824,1.965,2.723c0.434,0.586,0.985,1.055,1.711,0.533c0.696-0.502,0.348-1.143,0.004-1.704
	c-3.926-6.404-7.863-12.802-11.783-19.211c-1.084-1.771-2.252-3.508-3.143-5.375c-1.438-3.009,0.279-5.787,3.371-5.709
	c1.309,0.033,2.171,0.805,2.816,1.791c2.756,4.211,5.494,8.434,8.182,12.689c2.219,3.514,4.355,7.079,6.529,10.621
	c0.167,0.271,0.283,0.639,0.529,0.785c0.423,0.254,0.929,0.369,1.399,0.543c0.019-0.469,0.222-1.04,0.026-1.389
	c-1.5-2.686-3.107-5.311-4.626-7.985c-2.425-4.272-4.837-8.554-7.195-12.864c-1.169-2.137-0.728-3.936,1.069-4.994
	c1.391-0.82,2.81-0.723,3.947,0.43c0.665,0.672,1.217,1.48,1.707,2.297c3.725,6.199,7.324,12.475,11.162,18.604
	c2.156,3.443,4.689,6.651,7.053,9.967c0.719,1.008,1.439,2.014,2.146,3.03c0.502,0.723,0.943,1.488,1.479,2.184
	c1.122,1.455,1.797,1.51,2.637-0.084c1.299-2.465,2.426-5.026,3.505-7.598c1.03-2.453,2.181-4.805,4.166-6.641
	c1.163-1.075,2.49-1.563,4.069-1.023c0.987,0.336,1.599,0.998,1.453,2.061c-0.254,1.85-0.479,3.721-0.949,5.521
	c-2.524,9.688-5.096,19.364-7.717,29.024c-0.446,1.643-1.131,3.236-1.854,4.783c-1.076,2.299-0.832,4.68-0.652,7.066
	c0.069,0.914,0.252,1.818,0.369,2.729c0.127,0.988-0.262,1.537-1.313,1.527C92.163,144.376,91.004,144.384,89.845,144.384z"/>
<path fill-rule="evenodd" clip-rule="evenodd" fill="#FFFFFF" d="M138.102,144.38c-1.199,0-2.398-0.004-3.598,0
	c-0.92,0.004-1.254-0.375-1.141-1.346c0.246-2.139,0.453-4.289,0.525-6.439c0.031-0.93-0.1-1.982-0.518-2.795
	c-2.15-4.176-2.922-8.76-4.105-13.227c-1.965-7.398-4.004-14.779-5.969-22.178c-0.348-1.304-0.6-2.653-0.701-3.996
	c-0.176-2.33,1.652-3.668,3.818-2.688c1.111,0.504,2.225,1.375,2.91,2.373c1.186,1.727,2.096,3.655,3.016,5.551
	c1.113,2.295,2.014,4.698,3.203,6.952c1.072,2.035,1.773,2.008,3.121,0.105c6.115-8.634,12.395-17.157,17.441-26.5
	c1.537-2.843,3.275-5.583,5.023-8.306c1.314-2.049,3.221-2.443,5.021-1.223c1.275,0.863,1.822,2.193,1.285,3.652
	c-0.438,1.189-1.049,2.326-1.678,3.433c-3.355,5.903-6.742,11.788-10.115,17.681c-0.238,0.416-0.539,0.826-0.643,1.277
	c-0.072,0.316,0.039,0.885,0.254,1.001c0.256,0.139,0.811,0.033,1.051-0.177c0.379-0.33,0.617-0.826,0.889-1.268
	c3.836-6.224,7.65-12.462,11.516-18.668c1.012-1.627,2.135-3.188,3.287-4.719c1.258-1.67,2.77-2.004,4.533-1.137
	c1.674,0.824,2.406,2.393,1.824,4.313c-0.307,1.015-0.83,1.989-1.387,2.901c-4.516,7.402-9.068,14.78-13.588,22.18
	c-0.406,0.664-1.27,1.497-0.262,2.182c1.031,0.703,1.557-0.352,2.053-1.039c3.896-5.418,7.754-10.866,11.68-16.264
	c1.006-1.385,2.145-2.693,3.348-3.912c1.346-1.363,2.949-1.494,4.23-0.6c1.35,0.94,1.42,2.309,1.057,3.651
	c-0.314,1.174-0.809,2.362-1.488,3.364c-3.635,5.357-7.359,10.653-11.033,15.983c-0.861,1.25-1.705,2.52-2.438,3.846
	c-0.264,0.477-0.443,1.439-0.191,1.674c0.666,0.617,1.359,0.053,1.811-0.525c2.414-3.084,4.813-6.18,7.18-9.297
	c1.449-1.91,2.811-3.889,4.264-5.795c0.873-1.148,2.02-1.812,3.543-1.486c1.697,0.36,2.566,1.754,1.898,3.439
	c-0.582,1.473-1.342,2.908-2.229,4.222c-2.076,3.08-4.307,6.052-6.41,9.113c-1.398,2.035-2.689,4.145-4.025,6.223
	c-1.617,2.518-3.063,5.168-4.883,7.527c-2.809,3.643-4.789,7.734-6.977,11.723c-0.805,1.471-1.578,2.975-2.541,4.338
	c-0.465,0.656-1.277,1.324-2.033,1.475c-5.945,1.178-11.908,2.271-17.883,3.291c-1.281,0.219-2.631,0.031-3.947,0.031
	C138.102,144.325,138.102,144.353,138.102,144.38z"/>
<path fill-rule="evenodd" clip-rule="evenodd" fill="#FFFFFF" d="M128.213,184.843c0-2.203-0.029-4.309,0.008-6.414
	c0.051-2.914,0.146-5.828,0.229-8.742c0.145-5.027,0.287-10.057,0.443-15.084c0.049-1.582,1.104-2.658,2.566-2.539
	c7.27,0.594,14.424-0.238,21.529-1.697c3.436-0.705,6.865-1.434,10.297-2.152c1.443-0.303,2.15,0.158,2.355,1.598
	c0.566,3.99,1.141,7.979,1.641,11.975c0.057,0.465-0.193,1.111-0.525,1.457c-10.145,10.596-22.355,17.643-36.584,21.193
	C129.559,184.591,128.932,184.696,128.213,184.843z"/>
<path fill-rule="evenodd" clip-rule="evenodd" fill="#FFFFFF" d="M99.895,185.04c-3.076-0.898-5.938-1.607-8.712-2.568
	c-11.483-3.98-21.462-10.346-29.84-19.168c-0.374-0.393-0.637-1.135-0.571-1.668c0.49-3.959,1.063-7.906,1.641-11.854
	c0.19-1.307,1.078-1.805,2.459-1.537c5.752,1.113,11.5,2.248,17.262,3.303c4.626,0.848,9.305,0.773,13.979,0.566
	c2.018-0.09,2.98,0.717,3.035,2.75c0.132,4.871,0.242,9.742,0.369,14.613c0.121,4.67,0.252,9.34,0.377,14.01
	C99.903,183.878,99.895,184.269,99.895,185.04z"/>
</svg>
