<?xml version="1.0" encoding="utf-8"?>
<!-- Generator: Adobe Illustrator 16.0.0, SVG Export Plug-In . SVG Version: 6.00 Build 0)  -->
<!DOCTYPE svg PUBLIC "-//W3C//DTD SVG 1.1//EN" "http://www.w3.org/Graphics/SVG/1.1/DTD/svg11.dtd">
<svg version="1.1" id="Layer_1" xmlns="http://www.w3.org/2000/svg" xmlns:xlink="http://www.w3.org/1999/xlink" x="0px" y="0px"
	 width="226.772px" height="226.771px" viewBox="0 0 226.772 226.771" enable-background="new 0 0 226.772 226.771"
	 xml:space="preserve">
<circle fill-rule="evenodd" clip-rule="evenodd" fill="#009B91" cx="114.016" cy="113.805" r="100.994"/>
<path fill-rule="evenodd" clip-rule="evenodd" fill="#FFFFFF" d="M154.562,52.208c-3.141,3.497-6.268,7.022-9.453,10.495
	c-0.813,0.885-1.221,1.814-1.174,3.01c0.053,1.358,0.059,2.723-0.014,4.078c-0.027,0.518-0.221,1.105-0.533,1.514
	c-1.258,1.658-1.559,1.689-3.322,0.559c-9.412-6.044-19.77-8.27-30.792-7.185C87.939,66.779,70.088,83.3,66.41,104.263
	c-2.855,16.277,1.576,30.439,12.805,42.494c8.386,9.004,18.813,13.648,31.014,14.889c24.603,2.496,47.474-15.727,51.859-39.055
	c2.223-11.834,0.322-22.856-5.514-33.291c-0.547-0.977-1.15-1.924-1.645-2.926c-0.164-0.333-0.252-0.959-0.061-1.168
	c0.822-0.906,1.656-1.813,3.107-1.732c1.674,0.094,3.359,0.006,5.039,0.027c1.061,0.014,1.889-0.348,2.65-1.128
	c2.848-2.921,5.752-5.786,8.641-8.667c0.273-0.273,0.574-0.521,0.869-0.785c15.953,21.365,19.551,61.898-7.486,90.572
	c-27.857,29.543-75.027,30.803-104.374,2.424C33.424,137.009,33.328,88.634,64,59.679C92.119,33.132,132.156,35.907,154.562,52.208z
	"/>
<path fill-rule="evenodd" clip-rule="evenodd" fill="#FFFFFF" d="M124.755,91.436c-0.395,0.412-0.713,0.761-1.049,1.095
	c-5.053,5.016-10.083,10.054-15.173,15.031c-2.114,2.068-3.004,4.42-2.415,7.363c0.635,3.166,2.437,5.262,5.503,6.18
	c3.101,0.928,5.857,0.168,8.142-2.111c5.07-5.055,10.111-10.139,15.168-15.207c0.334-0.336,0.695-0.645,1.055-0.973
	c3.807,5.643,4.59,18.934-4.293,27.881c-9.287,9.355-23.931,9.875-34.008,1.191c-9.61-8.281-11.077-23.057-3.351-33.409
	C102.324,87.771,116.724,86.746,124.755,91.436z"/>
<path fill-rule="evenodd" clip-rule="evenodd" fill="#FFFFFF" d="M163.263,53.392c0,3.67,0,7.102,0,10.729c3.598,0,7.115,0,10.988,0
	c-0.486,0.58-0.709,0.889-0.973,1.152c-3.84,3.85-7.701,7.68-11.521,11.549c-0.984,0.996-2.096,1.336-3.463,1.227
	c-1.271-0.104-2.566-0.168-3.828-0.035c-0.695,0.072-1.498,0.427-1.99,0.917c-10.34,10.3-20.643,20.636-30.951,30.965
	c-1.752,1.754-3.484,3.525-5.264,5.254c-1.389,1.352-2.962,1.438-4.166,0.309c-1.225-1.15-1.17-2.771,0.152-4.266
	c0.266-0.299,0.549-0.58,0.832-0.863c11.763-11.758,23.537-23.507,35.267-35.3c0.533-0.537,0.885-1.435,0.971-2.203
	c0.18-1.582,0.072-3.193,0.189-4.785c0.043-0.594,0.227-1.322,0.617-1.723c4.146-4.223,8.346-8.391,12.535-12.57
	C162.759,53.647,162.912,53.597,163.263,53.392z"/>
</svg>
