<?xml version="1.0" encoding="utf-8"?>
<!-- Generator: Adobe Illustrator 16.0.0, SVG Export Plug-In . SVG Version: 6.00 Build 0)  -->
<!DOCTYPE svg PUBLIC "-//W3C//DTD SVG 1.1//EN" "http://www.w3.org/Graphics/SVG/1.1/DTD/svg11.dtd">
<svg version="1.1" id="Layer_1" xmlns="http://www.w3.org/2000/svg" xmlns:xlink="http://www.w3.org/1999/xlink" x="0px" y="0px"
	 width="226.772px" height="226.771px" viewBox="0 0 226.772 226.771" enable-background="new 0 0 226.772 226.771"
	 xml:space="preserve">
<circle fill-rule="evenodd" clip-rule="evenodd" fill="#009B91" cx="114.016" cy="113.805" r="100.994"/>
<path fill-rule="evenodd" clip-rule="evenodd" fill="#FFFFFF" d="M154.033,67.93c-0.549,0.517-0.791,0.763-1.051,0.987
	c-2.639,2.268-5.299,4.508-7.904,6.813c-0.648,0.572-1.283,0.805-2.143,0.804c-21.357-0.021-42.715-0.016-64.074-0.016
	c-1.793,0-1.794,0.001-1.794,1.829c0,23.557-0.001,47.115,0,70.673c0,1.668,0.001,1.67,1.713,1.67c23.558,0,47.116,0,70.673,0
	c1.705,0,1.707-0.002,1.707-1.689c0-9.84,0.01-19.678-0.018-29.518c-0.002-0.861,0.217-1.516,0.799-2.145
	c2.631-2.846,5.229-5.72,8.066-8.833c0.061,0.656,0.117,0.982,0.117,1.307c0.004,13.519,0.02,27.037-0.004,40.556
	c-0.01,5.309-4.178,9.289-9.686,9.301c-7.92,0.02-15.84,0.006-23.758,0.006c-16.279,0-32.558,0.006-48.836-0.004
	c-4.957-0.004-8.656-2.969-9.612-7.686c-0.126-0.619-0.126-1.271-0.126-1.908c-0.006-24.318-0.006-48.634-0.004-72.953
	c0-5.502,3.99-9.555,9.504-9.582c7.039-0.033,14.078-0.009,21.117-0.009c17.16,0,34.318-0.007,51.477,0.016
	C151.361,67.55,152.527,67.775,154.033,67.93z"/>
<path fill-rule="evenodd" clip-rule="evenodd" fill="#4FC6BA" d="M99.325,104.318c5.411,5.244,10.735,10.402,16.14,15.64
	c12.609-17.199,27.104-32.642,44.449-45.492c3.627,4.536,7.238,9.049,10.936,13.67c-0.404,0.35-0.74,0.668-1.105,0.953
	c-6.646,5.201-13.154,10.563-19.07,16.604c-9.844,10.052-18.723,20.892-26.469,32.644c-3.43,5.201-9.803,5.967-14.18,1.568
	c-7.473-7.51-14.885-15.08-22.32-22.627c-0.216-0.219-0.393-0.479-0.412-0.504C91.378,112.544,95.394,108.387,99.325,104.318z"/>
</svg>
