<?xml version="1.0" encoding="utf-8"?>
<!-- Generator: Adobe Illustrator 16.0.0, SVG Export Plug-In . SVG Version: 6.00 Build 0)  -->
<!DOCTYPE svg PUBLIC "-//W3C//DTD SVG 1.1//EN" "http://www.w3.org/Graphics/SVG/1.1/DTD/svg11.dtd">
<svg version="1.1" id="Layer_1" xmlns="http://www.w3.org/2000/svg" xmlns:xlink="http://www.w3.org/1999/xlink" x="0px" y="0px"
	 width="226.772px" height="226.771px" viewBox="0 0 226.772 226.771" enable-background="new 0 0 226.772 226.771"
	 xml:space="preserve">
<circle fill-rule="evenodd" clip-rule="evenodd" fill="#009B91" cx="114.016" cy="113.805" r="100.994"/>
<path fill-rule="evenodd" clip-rule="evenodd" fill="#FFFFFF" d="M159.683,72.65c-0.42,1.72-1.039,4.394-1.732,7.05
	c-7.807,29.909-15.623,59.816-23.438,89.725c-1.365,5.225-4.51,8.004-9.818,8.484c-1.16,0.105-2.395-0.107-3.537-0.404
	c-16.138-4.188-32.267-8.408-48.395-12.635c-5.995-1.572-9.255-6.963-7.707-12.965c4.034-15.641,8.139-31.266,12.219-46.896
	C81.507,88.8,85.735,72.591,89.98,56.386c1.546-5.904,7.026-9.166,12.919-7.639c16.217,4.205,32.426,8.436,48.631,12.686
	C156.57,62.753,159.689,66.721,159.683,72.65z M101.343,57.212c-2.209,0.027-3.424,1.193-4.041,3.561
	c-4.219,16.172-8.443,32.342-12.663,48.514c-2.538,9.727-5.074,19.453-7.604,29.184c-0.668,2.572,0.34,4.309,2.896,4.977
	c15.166,3.973,30.332,7.938,45.502,11.898c2.766,0.723,4.441-0.277,5.172-3.066c2.842-10.842,5.682-21.684,8.512-32.529
	c3.969-15.207,7.932-30.416,11.883-45.627c0.602-2.318-0.5-4.129-2.811-4.732c-14.086-3.681-28.174-7.358-42.263-11.032
	C104.307,57.935,102.679,57.545,101.343,57.212z M99.849,166.97c3.605-0.01,6.459-2.861,6.467-6.465
	c0.01-3.625-2.89-6.455-6.599-6.443c-3.532,0.012-6.362,2.828-6.424,6.395C93.23,164.054,96.173,166.978,99.849,166.97z"/>
<path fill-rule="evenodd" clip-rule="evenodd" fill="#009B91" d="M101.343,57.212c1.336,0.333,2.964,0.723,4.583,1.146
	c14.089,3.674,28.177,7.352,42.263,11.032c2.311,0.604,3.412,2.414,2.811,4.732c-3.951,15.211-7.914,30.42-11.883,45.627
	c-2.83,10.846-5.67,21.688-8.512,32.529c-0.73,2.789-2.406,3.789-5.172,3.066c-15.17-3.961-30.336-7.926-45.502-11.898
	c-2.557-0.668-3.564-2.404-2.896-4.977c2.53-9.73,5.066-19.457,7.604-29.184c4.22-16.172,8.444-32.342,12.663-48.514
	C97.919,58.405,99.134,57.239,101.343,57.212z M120.652,131.679c0.652,0.123,0.99,0.184,1.326,0.25
	c3.471,0.703,6.605-1.094,7.564-4.455c0.887-3.105,1.707-6.232,2.459-9.373c0.787-3.295-1.156-6.633-4.383-7.5
	c-5.895-1.584-11.801-3.117-17.719-4.607c-3.451-0.87-6.686,0.998-7.652,4.406c-0.871,3.069-1.672,6.158-2.41,9.262
	c-0.849,3.566,1.142,6.785,4.678,7.715c2.547,0.668,5.105,1.285,7.641,1.996c0.621,0.174,1.254,0.523,1.731,0.957
	c1.979,1.805,3.896,3.674,5.842,5.514c0.598,0.564,1.215,1.111,1.822,1.666c0.076-0.041,0.154-0.082,0.23-0.125
	C121.423,135.579,121.066,133.774,120.652,131.679z M97.939,98.951c0.043,0.071,0.086,0.144,0.129,0.216
	c0.368-0.083,0.74-0.147,1.103-0.25c4.563-1.293,9.116-2.723,13.816-0.517c0.462,0.218,0.991,0.306,1.495,0.418
	c2.648,0.585,5.314-0.74,6.076-3.228c0.852-2.78,1.588-5.605,2.191-8.449c0.553-2.602-1.07-5.126-3.629-5.817
	c-4.85-1.312-9.711-2.585-14.584-3.804c-2.742-0.686-5.381,0.875-6.165,3.6c-0.739,2.566-1.44,5.147-2.044,7.748
	c-0.631,2.715,0.893,5.255,3.536,6.131c0.319,0.106,0.63,0.239,1.106,0.422C99.882,96.688,98.911,97.819,97.939,98.951z"/>
<path fill-rule="evenodd" clip-rule="evenodd" fill="#009B91" d="M99.849,166.97c-3.676,0.008-6.618-2.916-6.556-6.514
	c0.062-3.566,2.892-6.383,6.424-6.395c3.709-0.012,6.608,2.818,6.599,6.443C106.308,164.108,103.454,166.96,99.849,166.97z"/>
<path fill-rule="evenodd" clip-rule="evenodd" fill="#FFFFFF" d="M120.652,131.679c0.414,2.096,0.771,3.9,1.129,5.705
	c-0.076,0.043-0.154,0.084-0.23,0.125c-0.607-0.555-1.225-1.102-1.822-1.666c-1.945-1.84-3.863-3.709-5.842-5.514
	c-0.477-0.434-1.11-0.783-1.731-0.957c-2.535-0.711-5.094-1.328-7.641-1.996c-3.536-0.93-5.526-4.148-4.678-7.715
	c0.738-3.104,1.539-6.193,2.41-9.262c0.967-3.408,4.201-5.276,7.652-4.406c5.918,1.49,11.825,3.023,17.719,4.607
	c3.227,0.867,5.17,4.205,4.383,7.5c-0.752,3.141-1.572,6.268-2.459,9.373c-0.959,3.361-4.094,5.158-7.564,4.455
	C121.642,131.862,121.304,131.802,120.652,131.679z"/>
<path fill-rule="evenodd" clip-rule="evenodd" fill="#FFFFFF" d="M97.939,98.951c0.972-1.132,1.942-2.263,3.03-3.53
	c-0.477-0.183-0.787-0.315-1.106-0.422c-2.644-0.876-4.167-3.416-3.536-6.131c0.604-2.601,1.305-5.182,2.044-7.748
	c0.784-2.725,3.423-4.285,6.165-3.6c4.873,1.219,9.735,2.492,14.584,3.804c2.559,0.691,4.182,3.216,3.629,5.817
	c-0.604,2.844-1.34,5.669-2.191,8.449c-0.762,2.487-3.428,3.813-6.076,3.228c-0.504-0.112-1.033-0.2-1.495-0.418
	c-4.7-2.206-9.254-0.776-13.816,0.517c-0.362,0.103-0.734,0.167-1.103,0.25C98.025,99.095,97.982,99.022,97.939,98.951z"/>
</svg>
