<?xml version="1.0" encoding="utf-8"?>
<!-- Generator: Adobe Illustrator 16.0.0, SVG Export Plug-In . SVG Version: 6.00 Build 0)  -->
<!DOCTYPE svg PUBLIC "-//W3C//DTD SVG 1.1//EN" "http://www.w3.org/Graphics/SVG/1.1/DTD/svg11.dtd">
<svg version="1.1" id="Layer_1" xmlns="http://www.w3.org/2000/svg" xmlns:xlink="http://www.w3.org/1999/xlink" x="0px" y="0px"
	 width="226.772px" height="226.771px" viewBox="0 0 226.772 226.771" enable-background="new 0 0 226.772 226.771"
	 xml:space="preserve">
<circle fill-rule="evenodd" clip-rule="evenodd" fill="#009B91" cx="114.016" cy="113.805" r="100.994"/>
<path fill-rule="evenodd" clip-rule="evenodd" fill="#FFFFFF" d="M115.207,160.467c-15.439,0-30.877,0.002-46.316-0.008
	c-0.876,0-1.768-0.02-2.623-0.18c-1.855-0.344-2.676-1.287-2.849-3.176c-0.077-0.836-0.083-1.678-0.083-2.518
	c-0.004-27.398-0.004-54.796-0.001-82.195c0-0.6,0.021-1.199,0.053-1.798c0.134-2.477,1.269-3.573,3.834-3.589
	c4.68-0.027,9.359-0.003,14.039-0.01c1.76-0.004,3.519-0.022,5.278-0.055c1.74-0.031,3.169,0.613,4.394,1.842
	c3.105,3.115,6.242,6.199,9.355,9.304c1.295,1.29,2.854,1.822,4.66,1.823c18.998,0.008,37.996,0.03,56.994,0.047
	c4.271,0.004,5.209,0.939,5.209,5.218c0.002,23.239,0.002,46.477,0,69.715c0,4.678-0.904,5.576-5.627,5.576
	C146.085,160.467,130.646,160.467,115.207,160.467z M110.777,129.928c-0.598-0.566-0.945-0.883-1.277-1.215
	c-2.604-2.598-5.17-5.232-7.82-7.783c-1.91-1.84-4.762-1.771-6.443,0.031c-1.689,1.813-1.584,4.475,0.285,6.348
	c5.449,5.463,10.906,10.918,16.369,16.369c2.031,2.027,4.65,2.023,6.678-0.002c5.432-5.424,10.859-10.852,16.283-16.283
	c1.961-1.963,2.068-4.705,0.277-6.512c-1.787-1.803-4.564-1.711-6.516,0.232c-2.635,2.623-5.258,5.258-7.891,7.883
	c-0.281,0.281-0.598,0.527-1.107,0.973c0-0.814,0-1.291,0-1.768c0-9.277,0-18.553,0-27.828c0-0.439,0.01-0.881-0.018-1.318
	c-0.156-2.525-2.492-4.365-4.994-3.945c-2.416,0.405-3.82,2.119-3.824,4.738c-0.008,9.435-0.002,18.871-0.002,28.306
	C110.777,128.627,110.777,129.098,110.777,129.928z"/>
<path fill-rule="evenodd" clip-rule="evenodd" fill="#009B91" d="M110.777,129.928c0-0.83,0-1.301,0-1.773
	c0-9.436-0.006-18.871,0.002-28.306c0.004-2.619,1.408-4.333,3.824-4.738c2.502-0.42,4.838,1.42,4.994,3.945
	c0.027,0.438,0.018,0.879,0.018,1.318c0,9.275,0,18.55,0,27.828c0,0.477,0,0.953,0,1.768c0.51-0.445,0.826-0.691,1.107-0.973
	c2.633-2.625,5.256-5.26,7.891-7.883c1.951-1.943,4.729-2.035,6.516-0.232c1.791,1.807,1.684,4.549-0.277,6.512
	c-5.424,5.432-10.852,10.859-16.283,16.283c-2.027,2.025-4.646,2.029-6.678,0.002c-5.463-5.451-10.92-10.906-16.369-16.369
	c-1.869-1.873-1.975-4.535-0.285-6.348c1.682-1.803,4.533-1.871,6.443-0.031c2.65,2.551,5.217,5.186,7.82,7.783
	C109.832,129.045,110.179,129.361,110.777,129.928z"/>
</svg>
