<?xml version="1.0" encoding="utf-8"?>
<!-- Generator: Adobe Illustrator 16.0.0, SVG Export Plug-In . SVG Version: 6.00 Build 0)  -->
<!DOCTYPE svg PUBLIC "-//W3C//DTD SVG 1.1//EN" "http://www.w3.org/Graphics/SVG/1.1/DTD/svg11.dtd">
<svg version="1.1" id="Layer_1" xmlns="http://www.w3.org/2000/svg" xmlns:xlink="http://www.w3.org/1999/xlink" x="0px" y="0px"
	 width="226.772px" height="226.771px" viewBox="0 0 226.772 226.771" enable-background="new 0 0 226.772 226.771"
	 xml:space="preserve">
<circle fill-rule="evenodd" clip-rule="evenodd" fill="#009B91" cx="114.016" cy="113.805" r="100.994"/>
<path fill-rule="evenodd" clip-rule="evenodd" fill="#FFFFFF" d="M163.982,111.813c-7.686-0.227-14.867,1.849-21.682,5.159
	c-5.129,2.492-10.184,5.176-15.088,8.084c-7.912,4.691-16.398,7.412-25.525,8.225c-1.629,0.145-3.27,0.16-4.904,0.252
	c-1.793,0.102-3.033-0.762-3.67-2.338c-0.67-1.66-1.209-3.381-1.678-5.109c-4.137-15.2-8.249-30.407-12.355-45.617
	c-0.883-3.269-0.398-3.957,2.938-3.826c9.113,0.359,17.347-2.511,25.307-6.591c7.812-4.003,15.607-8.058,23.568-11.744
	c6.559-3.035,13.645-3.801,20.838-3.542c1.203,0.043,1.771,0.708,2.061,1.794c2.176,8.21,4.34,16.423,6.559,24.622
	c2.531,9.355,5.113,18.695,7.672,28.041c0.043,0.154,0.088,0.308,0.131,0.461c0.533,1.943,0.367,2.154-1.654,2.132
	C165.66,111.805,164.82,111.813,163.982,111.813z M136.222,77.872c5.018-1.108,9.945-2.197,15.018-3.317
	c-0.355-1.356-0.682-2.62-1.021-3.879c-0.654-2.426-1.254-4.869-2-7.267c-0.406-1.308-0.799-2.241-2.766-1.831
	c-2.461,0.514-4.943,0.918-7.414,1.378c-1.754,0.327-3.506,0.668-5.367,1.024c0.119,0.525,0.199,0.905,0.295,1.28
	c0.92,3.593,1.877,7.176,2.748,10.781c0.377,1.555-0.129,2.517-1.514,3.262c-1.969,1.06-3.941,2.113-5.928,3.14
	c-2.225,1.148-4.469,2.264-6.834,3.459c-1.273-4.547-2.516-8.971-3.785-13.499c-4.775,2.552-9.392,5.001-13.976,7.511
	c-0.262,0.143-0.43,0.816-0.346,1.174c0.441,1.861,0.979,3.701,1.482,5.548c0.646,2.37,1.291,4.741,1.971,7.231
	c4.988-2.639,9.826-5.199,14.769-7.814c1.457,5.287,2.848,10.334,4.27,15.488c4.801-2.539,9.428-4.971,14.025-7.454
	c0.242-0.13,0.412-0.726,0.34-1.042c-0.35-1.556-0.795-3.09-1.201-4.633C138.078,84.946,137.169,81.479,136.222,77.872z
	 M90.989,97.913c1.438,5.286,2.844,10.457,4.269,15.695c4.911-1.208,9.664-2.382,14.422-3.543c0.975-0.238,0.985-0.922,0.791-1.668
	c-0.635-2.43-1.293-4.853-1.949-7.275c-0.601-2.219-1.211-4.435-1.826-6.686C101.419,95.604,96.287,96.739,90.989,97.913z
	 M110.971,109.905c1.342,4.684,2.639,9.217,3.986,13.92c4.566-2.514,9.014-4.932,13.41-7.436c0.391-0.221,0.742-1.074,0.633-1.514
	c-1.051-4.209-2.203-8.391-3.365-12.717C120.583,104.827,115.654,107.431,110.971,109.905z M159.447,104.521
	c-1.109-3.934-2.121-7.662-3.227-11.363c-0.436-1.463-1.477-1.99-2.957-1.753c-0.867,0.14-1.736,0.269-2.6,0.421
	c-3.285,0.578-6.57,1.165-9.969,1.769c1.301,4.756,2.563,9.378,3.83,14.011C149.572,106.562,154.404,105.563,159.447,104.521z"/>
<path fill-rule="evenodd" clip-rule="evenodd" fill="#FFFFFF" d="M96.789,185.651c-1.939,0.018-3.453-1.119-3.998-3.141
	c-1.605-5.971-3.178-11.949-4.749-17.928c-7.157-27.232-14.311-54.468-21.464-81.702c-0.385-1.466-0.807-2.925-1.124-4.405
	c-0.491-2.283,0.77-4.268,2.996-4.842c2.095-0.539,4.225,0.648,4.832,2.854c1.46,5.307,2.854,10.631,4.255,15.954
	c6.839,25.997,13.673,51.995,20.504,77.993c0.902,3.434,1.817,6.863,2.655,10.313C101.299,183.231,99.342,185.628,96.789,185.651z"
	/>
</svg>
