<?xml version="1.0" encoding="utf-8"?>
<!-- Generator: Adobe Illustrator 16.0.0, SVG Export Plug-In . SVG Version: 6.00 Build 0)  -->
<!DOCTYPE svg PUBLIC "-//W3C//DTD SVG 1.1//EN" "http://www.w3.org/Graphics/SVG/1.1/DTD/svg11.dtd">
<svg version="1.1" id="Layer_1" xmlns="http://www.w3.org/2000/svg" xmlns:xlink="http://www.w3.org/1999/xlink" x="0px" y="0px"
	 width="226.772px" height="226.771px" viewBox="0 0 226.772 226.771" enable-background="new 0 0 226.772 226.771"
	 xml:space="preserve">
<circle fill-rule="evenodd" clip-rule="evenodd" fill="#009B91" cx="114.016" cy="113.805" r="100.994"/>
<path fill-rule="evenodd" clip-rule="evenodd" fill="#FEFEFE" d="M113.03,171.323c-13.526-0.219-26.689-2.209-39.094-7.986
	c-1.34-0.623-1.974-1.293-1.754-2.855c1.026-7.271,2.023-14.543,3.979-21.645c3.185-11.564,11.631-15.639,21.304-17.805
	c0.916-0.205,1.247,0.34,1.729,0.898c7.709,8.947,21.884,8.936,29.769-0.027c0.49-0.557,0.836-1.082,1.748-0.867
	c7.223,1.703,13.939,4.258,18.223,10.852c2.85,4.389,3.811,9.451,4.764,14.457c0.908,4.777,1.414,9.631,2.24,14.426
	c0.24,1.385-0.344,1.832-1.404,2.287c-9.832,4.232-20.102,6.727-30.734,7.748C120.225,171.147,116.637,171.44,113.03,171.323z"/>
<path fill-rule="evenodd" clip-rule="evenodd" fill="#FEFEFE" d="M134.176,90.375c-0.182,5.169-1.426,11.789-4.523,17.974
	c-0.969,1.934-2.164,3.723-3.594,5.357c-7.49,8.57-17.064,8.498-24.384-0.219c-4.414-5.256-6.361-11.539-7.375-18.171
	c-0.324-2.125-0.413-4.288-0.59-6.435c-0.957-11.677,8.448-17.994,16.209-19.274c5.632-0.929,10.988-0.066,15.888,2.972
	C131.725,76.249,134.241,81.135,134.176,90.375z"/>
<path fill-rule="evenodd" clip-rule="evenodd" fill="#FEFEFE" d="M128.864,116.417c1.988-2.502,3.486-5.02,4.869-7.633
	c1.049-1.984,3.35-2.27,5.258-2.998c2.371-0.904,4.215-1.102,6.467,1.178c4.938,4.996,14.287,4.242,18.957-1.082
	c0.834-0.951,1.551-1.068,2.652-0.82c7.762,1.744,13.049,5.961,14.746,14.113c0.943,4.535,1.766,9.074,2.326,13.67
	c0.137,1.107-0.006,1.723-1.145,2.203c-7.873,3.322-16.072,5.16-24.596,5.627c-1.07,0.059-1.793-0.133-2.064-1.359
	c-2.982-13.479-12.311-19.846-25.096-22.32C130.536,116.858,129.844,116.657,128.864,116.417z"/>
<path fill-rule="evenodd" clip-rule="evenodd" fill="#FEFEFE" d="M99.095,116.472c-4.128,0.883-8.015,1.777-11.682,3.404
	c-8.231,3.65-13.372,9.91-15.396,18.643c-0.441,1.902-1.251,2.295-3.044,2.184c-8.039-0.5-15.799-2.072-23.176-5.404
	c-1.208-0.545-1.682-1.154-1.507-2.523c0.698-5.467,1.432-10.934,3.074-16.205c2.267-7.273,8.124-10.283,14.785-11.66
	c0.942-0.193,1.261,0.352,1.755,0.865c5.818,6.049,14.82,5.988,20.601-0.123c0.269-0.283,0.526-0.666,0.864-0.781
	c1.408-0.486,8.133,2.262,8.74,3.639C95.343,111.304,97.032,113.802,99.095,116.472z"/>
<path fill-rule="evenodd" clip-rule="evenodd" fill="#FEFEFE" d="M88.597,82.229c-0.498,7.186-1.713,14.121-7.43,19.313
	c-4.416,4.01-9.756,4.006-14.197-0.029c-5.569-5.059-6.818-11.788-7.393-18.856c-0.444-5.457,1.609-9.563,6.203-12.247
	c5.729-3.349,11.615-3.191,17.207,0.382C87.077,73.407,89.022,77.273,88.597,82.229z"/>
<path fill-rule="evenodd" clip-rule="evenodd" fill="#FEFEFE" d="M168.766,82.172c-0.494,7.271-1.727,14.279-7.559,19.495
	c-4.266,3.814-9.582,3.82-13.842,0.045c-5.785-5.126-7.086-11.987-7.619-19.234c-0.402-5.472,1.74-9.548,6.355-12.171
	c5.668-3.222,11.492-3.063,17.01,0.45C167.209,73.366,169.178,77.211,168.766,82.172z"/>
</svg>
