<?xml version="1.0" encoding="utf-8"?>
<!-- Generator: Adobe Illustrator 16.0.0, SVG Export Plug-In . SVG Version: 6.00 Build 0)  -->
<!DOCTYPE svg PUBLIC "-//W3C//DTD SVG 1.1//EN" "http://www.w3.org/Graphics/SVG/1.1/DTD/svg11.dtd">
<svg version="1.1" id="Layer_1" xmlns="http://www.w3.org/2000/svg" xmlns:xlink="http://www.w3.org/1999/xlink" x="0px" y="0px"
	 width="226.772px" height="226.771px" viewBox="0 0 226.772 226.771" enable-background="new 0 0 226.772 226.771"
	 xml:space="preserve">
<circle fill-rule="evenodd" clip-rule="evenodd" fill="#009B91" cx="114.716" cy="113.805" r="100.994"/>
<path fill-rule="evenodd" clip-rule="evenodd" fill="#FFFFFF" d="M112.051,116.253c0,23.748,0,47.252,0,71.119
	c-0.278-0.572-0.43-0.824-0.527-1.094c-6.028-16.703-12.05-33.408-18.087-50.107c-0.234-0.648-0.322-1.121,0.254-1.691
	c5.904-5.859,11.778-11.752,17.663-17.633C111.515,116.685,111.7,116.55,112.051,116.253z"/>
<path fill-rule="evenodd" clip-rule="evenodd" fill="#FFFFFF" d="M117.042,187.005c0-23.482,0-46.967,0-70.723
	c0.471,0.418,0.791,0.676,1.078,0.963c5.713,5.707,11.414,11.424,17.139,17.117c0.539,0.537,0.74,0.977,0.455,1.768
	c-6.059,16.721-12.086,33.453-18.119,50.184c-0.092,0.252-0.211,0.492-0.316,0.738C117.201,187.036,117.121,187.021,117.042,187.005
	z"/>
<path fill-rule="evenodd" clip-rule="evenodd" fill="#FFFFFF" d="M112.024,43.707c0,20.08,0,40.159,0,60.415
	c-0.344-0.287-0.615-0.482-0.85-0.717c-5.658-5.651-11.304-11.315-16.979-16.949c-0.567-0.563-0.69-1.002-0.36-1.755
	c5.838-13.302,11.645-26.617,17.463-39.928c0.166-0.381,0.363-0.749,0.547-1.123C111.905,43.668,111.965,43.687,112.024,43.707z"/>
<path fill-rule="evenodd" clip-rule="evenodd" fill="#FFFFFF" d="M178.843,108.191c-19.49,0-38.982,0-58.773,0
	c0.443-0.472,0.693-0.755,0.959-1.021c5.684-5.686,11.377-11.361,17.039-17.068c0.596-0.6,1.051-0.721,1.846-0.35
	c12.65,5.93,25.318,11.824,37.982,17.729c0.346,0.162,0.684,0.346,1.023,0.518C178.894,108.063,178.869,108.127,178.843,108.191z"/>
<path fill-rule="evenodd" clip-rule="evenodd" fill="#FFFFFF" d="M117.064,104.122c0-20.297,0-40.361,0-60.425
	c0.064-0.022,0.129-0.044,0.195-0.066c0.184,0.367,0.387,0.727,0.553,1.102c5.811,13.305,11.619,26.612,17.434,39.917
	c0.246,0.563,0.451,1-0.133,1.578c-5.82,5.766-11.604,11.566-17.402,17.356C117.574,103.721,117.412,103.833,117.064,104.122z"/>
<path fill-rule="evenodd" clip-rule="evenodd" fill="#FFFFFF" d="M108.913,108.192c-19.672,0-39.148,0-58.902,0
	c0.453-0.285,0.706-0.485,0.991-0.618c12.726-5.933,25.458-11.853,38.177-17.8c0.711-0.332,1.168-0.341,1.765,0.262
	c5.74,5.789,11.516,11.543,17.277,17.313C108.432,107.559,108.603,107.81,108.913,108.192z"/>
<path fill-rule="evenodd" clip-rule="evenodd" fill="#FFFFFF" d="M178.761,113.389c-2.814,1.317-5.629,2.639-8.445,3.952
	c-9.914,4.617-19.83,9.225-29.736,13.857c-0.711,0.334-1.195,0.465-1.861-0.207c-5.594-5.66-11.236-11.271-16.859-16.902
	c-0.242-0.24-0.449-0.518-0.803-0.932c19.354,0,38.504,0,57.652,0C178.726,113.234,178.744,113.311,178.761,113.389z"/>
<path fill-rule="evenodd" clip-rule="evenodd" fill="#FFFFFF" d="M108.032,113.18c-0.346,0.391-0.544,0.639-0.766,0.862
	c-5.627,5.629-11.265,11.25-16.873,16.898c-0.564,0.57-0.986,0.678-1.742,0.324c-12.475-5.842-24.965-11.646-37.45-17.465
	c-0.286-0.133-0.552-0.307-1.107-0.62C69.532,113.18,88.669,113.18,108.032,113.18z"/>
</svg>
