<?xml version="1.0" encoding="utf-8"?>
<!-- Generator: Adobe Illustrator 16.0.0, SVG Export Plug-In . SVG Version: 6.00 Build 0)  -->
<!DOCTYPE svg PUBLIC "-//W3C//DTD SVG 1.1//EN" "http://www.w3.org/Graphics/SVG/1.1/DTD/svg11.dtd">
<svg version="1.1" id="Layer_1" xmlns="http://www.w3.org/2000/svg" xmlns:xlink="http://www.w3.org/1999/xlink" x="0px" y="0px"
	 width="226.772px" height="226.771px" viewBox="0 0 226.772 226.771" enable-background="new 0 0 226.772 226.771"
	 xml:space="preserve">
<circle fill-rule="evenodd" clip-rule="evenodd" fill="#009B91" cx="114.716" cy="113.805" r="100.994"/>
<path fill-rule="evenodd" clip-rule="evenodd" fill="#FFFFFF" d="M135.482,122.257c1.994,1.746,4.002,3.504,6.166,5.398
	c0.443-0.533,1.133-1.357,1.953-2.34c12.414,12.387,24.658,24.604,36.805,36.723c-4.514,4.518-8.828,8.836-13.01,13.02
	c-12.098-12.096-24.326-24.326-36.635-36.635c0.496-0.521,1.201-1.264,1.855-1.953c-1.959-2.057-3.879-4.072-5.83-6.119
	c-0.32,0.191-0.529,0.289-0.709,0.426c-7.412,5.613-15.753,8.633-25.044,9.094c-20.408,1.014-39.011-11.326-45.691-30.066
	c-1.6-4.484-2.613-9.116-2.844-13.912c-0.614-12.81,3.902-23.688,12.458-32.988c6.769-7.357,15.091-12.122,24.913-14.133
	c11.712-2.399,22.686-0.269,32.743,6.017c11.865,7.414,19.063,18.211,21.332,31.986c2.023,12.285-0.541,23.745-7.588,34.109
	C136.113,121.243,135.89,121.616,135.482,122.257z M131.736,94.174c-0.033-17.979-12.367-33.479-33.379-33.393
	C78.42,60.863,65.608,75.505,65.433,93.323c-0.195,19.891,13.574,33.77,33.311,33.795
	C118.722,127.142,131.582,112.068,131.736,94.174z"/>
<path fill-rule="evenodd" clip-rule="evenodd" fill="#FFFFFF" d="M72.865,91.569c0.024-1.922,0.665-2.975,2.161-3.474
	c1.264-0.423,2.637-0.04,3.396,1.072c0.322,0.47,0.514,1.077,0.607,1.647c0.488,2.948,0.781,5.936,1.414,8.851
	c0.955,4.402,3.271,8.097,6.385,11.333c0.639,0.662,1.193,1.535,1.449,2.41c0.462,1.576-0.926,2.929-2.498,2.437
	c-0.953-0.299-1.924-0.84-2.648-1.523c-5.861-5.537-9.299-12.29-9.988-20.378C73.075,93.151,72.958,92.361,72.865,91.569z"/>
</svg>
