<?xml version="1.0" encoding="utf-8"?>
<!-- Generator: Adobe Illustrator 16.0.0, SVG Export Plug-In . SVG Version: 6.00 Build 0)  -->
<!DOCTYPE svg PUBLIC "-//W3C//DTD SVG 1.1//EN" "http://www.w3.org/Graphics/SVG/1.1/DTD/svg11.dtd">
<svg version="1.1" id="Layer_1" xmlns="http://www.w3.org/2000/svg" xmlns:xlink="http://www.w3.org/1999/xlink" x="0px" y="0px"
	 width="226.772px" height="226.771px" viewBox="0 0 226.772 226.771" enable-background="new 0 0 226.772 226.771"
	 xml:space="preserve">
<circle fill-rule="evenodd" clip-rule="evenodd" fill="#009B91" cx="114.716" cy="113.805" r="100.994"/>
<path fill-rule="evenodd" clip-rule="evenodd" fill="#FFFFFF" d="M106.603,92.957c0,7.52,0,14.857,0,22.311
	c7.488,0,14.83,0,22.289,0c0.025,0.537,0.061,0.961,0.063,1.385c0.002,16.68,0.002,33.359,0,50.039c0,2.969-1.246,4.193-4.24,4.193
	c-17.84,0-35.68,0.002-53.519,0c-3.019,0-4.227-1.193-4.227-4.18c-0.001-23.199-0.001-46.398,0-69.598
	c0-2.924,1.226-4.15,4.144-4.15c11.279,0,22.559,0,33.838,0C105.427,92.957,105.904,92.957,106.603,92.957z"/>
<path fill-rule="evenodd" clip-rule="evenodd" fill="#FFFFFF" d="M100.355,72.965c0-3.66-0.066-7.095,0.029-10.524
	c0.044-1.56,1.313-2.583,2.887-2.657c0.279-0.014,0.559-0.006,0.84-0.006c17.873,0,35.746,0,53.619,0.001
	c3.182,0,4.586,1.409,4.586,4.604c0,23.191,0,46.383,0,69.574c0,2.758-1.014,3.797-3.729,3.807c-2.957,0.01-5.914,0.002-9.08,0.002
	c0-0.568,0-1.066,0-1.564c0-18.354,0-36.707,0-55.061c0-5.045-3.08-8.164-8.129-8.17c-13.115-0.015-26.23-0.006-39.346-0.006
	C101.523,72.965,101.013,72.965,100.355,72.965z"/>
<path fill-rule="evenodd" clip-rule="evenodd" fill="#FFFFFF" d="M82.791,88.086c0-2.816-0.061-5.483,0.029-8.146
	c0.037-1.123,1.117-1.965,2.297-2.084c0.357-0.035,0.72-0.018,1.08-0.018c18.319-0.002,36.639-0.002,54.959-0.001
	c2.678,0,3.48,0.812,3.48,3.524c0,23.639,0,47.277,0,70.918c0,2.754-0.834,3.6-3.553,3.602c-1.959,0.002-3.922-0.061-5.879,0.023
	c-1.146,0.051-1.5-0.301-1.496-1.473c0.039-12.918,0.055-25.838,0.01-38.758c-0.02-5.974,0.771-3.991-3.367-8.18
	c-5.988-6.061-12.053-12.045-18.05-18.096c-0.912-0.92-1.879-1.338-3.179-1.332c-8.279,0.037-16.56,0.02-24.84,0.02
	C83.814,88.086,83.345,88.086,82.791,88.086z"/>
<path fill-rule="evenodd" clip-rule="evenodd" fill="#FFFFFF" d="M125.691,110.328c-4.539,0-9.348,0-14.24,0
	c0-4.884,0-9.696,0-14.23C116.136,100.78,120.945,105.585,125.691,110.328z"/>
</svg>
