<?xml version="1.0" encoding="utf-8"?>
<!-- Generator: Adobe Illustrator 16.0.0, SVG Export Plug-In . SVG Version: 6.00 Build 0)  -->
<!DOCTYPE svg PUBLIC "-//W3C//DTD SVG 1.1//EN" "http://www.w3.org/Graphics/SVG/1.1/DTD/svg11.dtd">
<svg version="1.1" id="Layer_1" xmlns="http://www.w3.org/2000/svg" xmlns:xlink="http://www.w3.org/1999/xlink" x="0px" y="0px"
	 width="226.772px" height="226.771px" viewBox="0 0 226.772 226.771" enable-background="new 0 0 226.772 226.771"
	 xml:space="preserve">
<circle fill-rule="evenodd" clip-rule="evenodd" fill="#009B91" cx="114.716" cy="113.805" r="100.994"/>
<path fill-rule="evenodd" clip-rule="evenodd" fill="#FFFFFF" d="M154.816,158.879c-0.538,0-0.947,0-1.354,0
	c-7.519,0-15.034-0.028-22.55,0.026c-1.239,0.01-1.501-0.401-1.501-1.562c0.03-28.86,0.03-57.722,0-86.584
	c-0.002-1.206,0.25-1.656,1.567-1.646c7.474,0.063,14.949,0.03,22.424,0.033c0.446,0.001,0.895,0.04,1.414,0.064
	C154.816,99.105,154.816,128.898,154.816,158.879z"/>
<path fill-rule="evenodd" clip-rule="evenodd" fill="#FFFFFF" d="M99.378,158.879c-0.637,0-1.045-0.002-1.454-0.002
	c-7.475,0.002-14.95-0.024-22.424,0.028c-1.176,0.008-1.542-0.274-1.542-1.497c0.034-28.945,0.026-57.89,0.026-86.836
	c0-0.408,0-0.816,0-1.345c0.567-0.032,1.011-0.079,1.455-0.079c7.475-0.004,14.951,0.021,22.424-0.028
	c1.183-0.008,1.543,0.296,1.541,1.517c-0.032,28.903-0.026,57.807-0.026,86.71C99.378,157.796,99.378,158.244,99.378,158.879z"/>
</svg>
