<?xml version="1.0" encoding="utf-8"?>
<!-- Generator: Adobe Illustrator 16.0.0, SVG Export Plug-In . SVG Version: 6.00 Build 0)  -->
<!DOCTYPE svg PUBLIC "-//W3C//DTD SVG 1.1//EN" "http://www.w3.org/Graphics/SVG/1.1/DTD/svg11.dtd">
<svg version="1.1" id="Layer_1" xmlns="http://www.w3.org/2000/svg" xmlns:xlink="http://www.w3.org/1999/xlink" x="0px" y="0px"
	 width="226.772px" height="226.771px" viewBox="0 0 226.772 226.771" enable-background="new 0 0 226.772 226.771"
	 xml:space="preserve">
<circle fill-rule="evenodd" clip-rule="evenodd" fill="#009B91" cx="114.716" cy="113.805" r="100.994"/>
<path fill-rule="evenodd" clip-rule="evenodd" fill="#FFFFFF" d="M128.958,131.978c0,11.596,0,23.191-0.002,34.785
	c0,2.975-1.258,4.24-4.213,4.24c-17.833,0.002-35.666,0.002-53.5,0c-2.941,0-4.244-1.293-4.245-4.23
	c-0.002-23.191-0.002-46.383,0-69.574c0.001-2.946,1.31-4.258,4.239-4.259c17.834-0.002,35.666-0.002,53.5,0
	c2.936,0,4.219,1.297,4.219,4.25C128.958,108.786,128.958,120.382,128.958,131.978z M98.055,132.388c-2.88,0-5.76-0.002-8.64,0
	c-3.04,0-6.08-0.02-9.12,0.01c-1.404,0.014-2.378,0.967-2.453,2.279c-0.072,1.25,0.751,2.25,2.092,2.496
	c0.389,0.072,0.794,0.088,1.191,0.088c11.24,0.004,22.479,0.006,33.718-0.004c0.516,0,1.047-0.031,1.541-0.16
	c1.094-0.283,1.672-1.041,1.721-2.17c0.066-1.561-0.938-2.533-2.652-2.537C109.654,132.382,103.854,132.388,98.055,132.388z
	 M97.943,117.921c-5.879,0-11.758-0.012-17.637,0.008c-1.5,0.006-2.459,0.969-2.467,2.355c-0.008,1.371,0.98,2.404,2.436,2.404
	c11.797,0.016,23.594,0.02,35.39-0.018c0.58-0.002,1.252-0.299,1.719-0.664c0.857-0.67,0.924-1.682,0.568-2.629
	c-0.391-1.041-1.25-1.469-2.375-1.467C109.7,117.927,103.822,117.919,97.943,117.921z M97.943,146.958
	c-5.8,0-11.6-0.02-17.397,0.027c-0.663,0.006-1.442,0.238-1.956,0.637c-0.826,0.641-0.975,1.613-0.557,2.607
	c0.486,1.156,1.426,1.516,2.604,1.514c11.558-0.008,23.116,0,34.674-0.008c1.801-0.002,2.785-0.873,2.799-2.4
	c0.012-1.555-0.932-2.373-2.771-2.375C109.541,146.954,103.742,146.958,97.943,146.958z"/>
<path fill-rule="evenodd" clip-rule="evenodd" fill="#FFFFFF" d="M162.318,99.18c0,11.678,0,23.356,0,35.034
	c0,2.547-1.082,3.617-3.658,3.623c-2.52,0.004-5.039,0.002-7.559,0c-1.588-0.002-1.59-0.004-1.59-1.549c0-14.039,0-28.077,0-42.114
	c0-4.52,0.006-9.039-0.002-13.559c-0.01-4.389-3.172-7.529-7.586-7.531c-13.357-0.004-26.717-0.02-40.074,0.029
	c-1.262,0.005-1.551-0.381-1.517-1.56c0.079-2.677,0.017-5.358,0.028-8.038c0.011-2.611,1.123-3.719,3.723-3.719
	c17.917-0.002,35.833-0.002,53.751,0c3.041,0,4.482,1.441,4.482,4.469C162.318,75.904,162.318,87.542,162.318,99.18z"/>
<path fill-rule="evenodd" clip-rule="evenodd" fill="#FFFFFF" d="M133.835,155.907c0-0.723,0-1.273,0-1.826
	c0-19,0.002-37.998-0.002-56.997c-0.002-4.097-1.896-7.147-5.367-8.373c-1.137-0.4-2.422-0.529-3.639-0.531
	c-13.398-0.037-26.797-0.023-40.196-0.023c-0.554,0-1.105,0-1.735,0c-0.052-0.411-0.121-0.713-0.123-1.014
	c-0.01-2.12-0.018-4.24,0-6.359c0.015-1.785,1.025-2.82,2.799-2.912c0.279-0.016,0.561-0.006,0.84-0.006c18.199,0,36.396,0,54.595,0
	c2.865,0,3.721,0.852,3.721,3.711c0,23.558,0,47.116,0,70.674c0,2.793-0.859,3.654-3.635,3.656
	C138.74,155.907,136.386,155.907,133.835,155.907z"/>
</svg>
