<?xml version="1.0" encoding="utf-8"?>
<!-- Generator: Adobe Illustrator 16.0.0, SVG Export Plug-In . SVG Version: 6.00 Build 0)  -->
<!DOCTYPE svg PUBLIC "-//W3C//DTD SVG 1.1//EN" "http://www.w3.org/Graphics/SVG/1.1/DTD/svg11.dtd">
<svg version="1.1" id="Layer_1" xmlns="http://www.w3.org/2000/svg" xmlns:xlink="http://www.w3.org/1999/xlink" x="0px" y="0px"
	 width="226.772px" height="226.771px" viewBox="0 0 226.772 226.771" enable-background="new 0 0 226.772 226.771"
	 xml:space="preserve">
<circle fill-rule="evenodd" clip-rule="evenodd" fill="#009B91" cx="114.016" cy="113.805" r="100.994"/>
<path fill-rule="evenodd" clip-rule="evenodd" fill="#FFFFFF" d="M123.548,47.823c4.744,0.119,8.711,3.087,10.008,7.736
	c4.086,14.636,8.131,29.283,12.182,43.93c4.688,16.953,9.363,33.91,14.053,50.863c1.814,6.564-1.16,11.92-7.742,13.75
	c-15.984,4.445-31.979,8.867-47.975,13.275c-6.012,1.656-11.531-1.453-13.207-7.486c-6.382-22.98-12.73-45.973-19.091-68.961
	c-2.382-8.61-4.759-17.223-7.149-25.832c-1.699-6.117,1.408-11.695,7.541-13.398c16.141-4.48,32.289-8.94,48.439-13.387
	C121.56,48.052,122.568,47.982,123.548,47.823z M148.085,138.755c-0.029-0.145-0.098-0.617-0.223-1.074
	c-0.973-3.58-1.951-7.158-2.939-10.734c-6.162-22.299-12.324-44.598-18.494-66.896c-0.785-2.838-2.49-3.785-5.324-3.002
	c-14.996,4.141-29.99,8.283-44.986,12.424c-2.843,0.785-3.83,2.502-3.053,5.313c7.121,25.76,14.241,51.521,21.362,77.28
	c0.823,2.979,2.485,3.908,5.474,3.084c8.075-2.232,16.15-4.457,24.225-6.691c7.035-1.945,14.07-3.893,21.1-5.857
	C147.072,142.083,148.072,140.812,148.085,138.755z M118.832,160.077c0.02,3.609,2.887,6.469,6.477,6.459
	c3.641-0.012,6.479-2.914,6.455-6.604c-0.021-3.547-3.035-6.504-6.539-6.422C121.609,153.597,118.812,156.47,118.832,160.077z"/>
<path fill-rule="evenodd" clip-rule="evenodd" fill="#009B91" d="M148.085,138.755c-0.014,2.057-1.014,3.328-2.859,3.846
	c-7.029,1.965-14.064,3.912-21.1,5.857c-8.074,2.234-16.149,4.459-24.225,6.691c-2.988,0.824-4.65-0.105-5.474-3.084
	c-7.121-25.76-14.241-51.521-21.362-77.28c-0.777-2.811,0.21-4.528,3.053-5.313c14.996-4.141,29.99-8.283,44.986-12.424
	c2.834-0.783,4.539,0.165,5.324,3.002c6.17,22.298,12.332,44.597,18.494,66.896c0.988,3.576,1.967,7.154,2.939,10.734
	C147.988,138.138,148.056,138.61,148.085,138.755z"/>
<path fill-rule="evenodd" clip-rule="evenodd" fill="#009B91" d="M118.832,160.077c-0.02-3.607,2.777-6.48,6.393-6.566
	c3.504-0.082,6.518,2.875,6.539,6.422c0.023,3.689-2.814,6.592-6.455,6.604C121.718,166.546,118.851,163.687,118.832,160.077z"/>
</svg>
