<?xml version="1.0" encoding="utf-8"?>
<!-- Generator: Adobe Illustrator 16.0.0, SVG Export Plug-In . SVG Version: 6.00 Build 0)  -->
<!DOCTYPE svg PUBLIC "-//W3C//DTD SVG 1.1//EN" "http://www.w3.org/Graphics/SVG/1.1/DTD/svg11.dtd">
<svg version="1.1" id="Layer_1" xmlns="http://www.w3.org/2000/svg" xmlns:xlink="http://www.w3.org/1999/xlink" x="0px" y="0px"
	 width="226.772px" height="226.771px" viewBox="0 0 226.772 226.771" enable-background="new 0 0 226.772 226.771"
	 xml:space="preserve">
<circle fill-rule="evenodd" clip-rule="evenodd" fill="#009B91" cx="114.716" cy="113.805" r="100.994"/>
<path fill-rule="evenodd" clip-rule="evenodd" fill="#FFFFFF" d="M116.613,93.355c0-1.193-0.002-2.425,0-3.655
	c0.02-10.957,0.037-21.912,0.068-32.869c0.004-1.597,0.133-3.195,0.096-4.791c-0.037-1.619,0.533-2.831,2.059-3.438
	c1.59-0.634,3.25-0.666,4.42,0.713c0.818,0.963,1.584,2.198,1.795,3.412c1.158,6.683,2.17,13.391,3.17,20.1
	c0.766,5.131,1.336,10.293,2.211,15.402c0.346,2.01,1.076,4.024,1.998,5.852c2.258,4.473,3.16,9.238,3.744,14.146
	c0.6,5.03,1.357,10.047,2.205,15.043c0.662,3.896,3.135,6.842,5.631,9.727c0.211,0.24,0.396,0.527,0.656,0.697
	c1.941,1.27,1.863,2.943,1.445,5.025c-1.529,7.615-6.258,12.586-12.846,16.068c-1.967,1.041-4.092,1.783-6.141,2.668
	c-0.66,0.283-1.119,0.033-1.723-0.336c-1.377-0.848-2.828-1.639-4.346-2.182c-4.199-1.504-4.414-1.73-4.424-6.141
	c-0.021-8.717-0.07-17.432-0.074-26.148c-0.004-7.836,0.039-15.674,0.049-23.51c0.002-1.121,0.225-2.093,1.457-2.442
	c1.283-0.364,2.096,0.448,2.424,1.431c0.768,2.299,1.482,4.639,1.926,7.016c1.449,7.764,2.77,15.553,4.133,23.333
	c0.211,1.205,0.869,1.826,1.877,1.719c1.014-0.109,1.588-0.836,1.396-2.086c-0.598-3.904-1.205-7.809-1.93-11.691
	c-1.059-5.686-2.166-11.364-3.381-17.018c-0.285-1.329-0.91-2.66-1.67-3.797c-1.254-1.876-3.102-2.697-5.404-2.199
	c-0.156,0.034-0.316,0.047-0.477,0.051C116.886,93.456,116.812,93.415,116.613,93.355z"/>
<path fill-rule="evenodd" clip-rule="evenodd" fill="#FFFFFF" d="M111.981,93.426c-4.37-0.305-6.474,1.086-7.464,5.332
	c-1.134,4.853-2.025,9.764-2.91,14.67c-0.852,4.711-1.561,9.448-2.33,14.174c-0.045,0.275-0.08,0.555-0.088,0.832
	c-0.033,0.996,0.453,1.625,1.436,1.73c1.023,0.109,1.676-0.389,1.848-1.438c0.797-4.883,1.541-9.773,2.403-14.644
	c0.813-4.593,1.72-9.171,2.659-13.739c0.196-0.955,0.586-1.935,1.137-2.731c0.337-0.49,1.23-0.999,1.723-0.879
	c0.585,0.144,1.051,0.919,1.48,1.487c0.162,0.216,0.102,0.619,0.102,0.938c0.043,12.873,0.1,25.747,0.111,38.62
	c0.003,4.354-0.154,8.711-0.143,13.064c0.004,1.582-0.648,2.592-2.037,3.182c-1.1,0.467-2.259,0.807-3.328,1.33
	c-1.098,0.539-2.1,1.271-3.184,1.84c-0.401,0.211-0.983,0.393-1.372,0.262c-5.03-1.713-9.532-4.326-13.183-8.227
	c-2.898-3.096-4.244-6.939-5.17-11.025c-0.441-1.949-0.121-3.283,1.373-4.568c0.955-0.82,1.655-1.939,2.463-2.93
	c2.564-3.143,3.686-6.822,4.176-10.787c0.734-5.942,1.464-11.888,2.422-17.795c0.359-2.212,1.104-4.443,2.107-6.451
	c2.081-4.166,2.789-8.607,3.373-13.136c0.754-5.856,1.67-11.69,2.513-17.535c0.598-4.147,1.142-8.304,1.818-12.438
	c0.155-0.944,0.636-1.897,1.179-2.704c1.025-1.525,2.627-1.979,4.324-1.425c1.701,0.556,2.475,1.676,2.479,3.648
	c0.014,6.278,0.012,12.556,0.025,18.833c0.014,6.996,0.037,13.992,0.057,20.989C111.982,92.378,111.981,92.851,111.981,93.426z"/>
<path fill-rule="evenodd" clip-rule="evenodd" fill="#FFFFFF" d="M177.736,149.706c-2.133,4.115-4.689,7.777-7.518,11.25
	c-5.707,7.008-12.211,13.094-20.406,17.125c-1.924,0.947-3.973,1.656-6.006,2.359c-0.443,0.152-1.26-0.012-1.57-0.344
	c-4.639-4.955-9.256-9.932-13.795-14.977c-1.137-1.264-0.912-1.617,0.693-2.158c5.797-1.947,11.012-4.891,15.412-9.176
	c4.094-3.988,6.344-8.936,7.354-14.494c0.342-1.883,1.146-2.41,2.918-1.557c2.154,1.041,4.215,2.275,6.34,3.379
	c5.17,2.688,10.355,5.348,15.533,8.02C177.005,149.296,177.312,149.474,177.736,149.706z"/>
<path fill-rule="evenodd" clip-rule="evenodd" fill="#FFFFFF" d="M53.399,149.649c2.554-1.313,5.03-2.514,7.436-3.838
	c4.232-2.332,8.419-4.748,12.634-7.113c0.764-0.43,1.543-0.854,2.361-1.152c1.201-0.439,1.809-0.055,2.031,1.203
	c0.568,3.201,1.468,6.291,2.98,9.184c3.307,6.322,8.736,10.275,14.942,13.332c1.462,0.721,3.014,1.275,4.562,1.797
	c0.863,0.289,0.949,0.719,0.58,1.414c-0.168,0.316-0.328,0.65-0.562,0.916c-4.274,4.855-8.567,9.697-12.836,14.559
	c-0.603,0.688-1.204,0.691-2.016,0.42c-6.456-2.17-11.921-5.924-16.844-10.525c-5.976-5.584-10.915-11.982-14.792-19.189
	C53.726,150.378,53.605,150.085,53.399,149.649z"/>
</svg>
