<?xml version="1.0" encoding="utf-8"?>
<!-- Generator: Adobe Illustrator 16.0.0, SVG Export Plug-In . SVG Version: 6.00 Build 0)  -->
<!DOCTYPE svg PUBLIC "-//W3C//DTD SVG 1.1//EN" "http://www.w3.org/Graphics/SVG/1.1/DTD/svg11.dtd">
<svg version="1.1" id="Layer_1" xmlns="http://www.w3.org/2000/svg" xmlns:xlink="http://www.w3.org/1999/xlink" x="0px" y="0px"
	 width="226.772px" height="226.771px" viewBox="0 0 226.772 226.771" enable-background="new 0 0 226.772 226.771"
	 xml:space="preserve">
<circle fill-rule="evenodd" clip-rule="evenodd" fill="#009B91" cx="114.716" cy="113.805" r="100.994"/>
<path fill-rule="evenodd" clip-rule="evenodd" fill="#FFFFFF" d="M99.636,90.952c-6.62,0-13.164,0-20.009,0
	c0.149-2.163,0.153-4.461,0.487-6.709c2.248-15.125,13.456-24.339,26.894-26.96c9.007-1.757,17.993-1.613,26.638,1.76
	c12.17,4.75,19.313,13.6,20.792,26.716c0.766,6.802,0.397,13.524-2.559,19.837c-3.776,8.063-10.283,13.024-18.562,15.849
	c-4.89,1.667-9.934,2.559-15.094,2.709c-1.092,0.031-1.447,0.336-1.428,1.459c0.069,3.838,0.025,7.678,0.025,11.794
	c-6.475,0-12.628,0-18.921,0c-0.371-8.84-0.746-17.791-1.131-27.026c2.476,0,4.846,0.052,7.216-0.01
	c5.992-0.152,11.961-0.583,17.721-2.384c1.72-0.538,3.398-1.322,4.953-2.236c4.857-2.861,7.286-7.272,7.46-12.824
	c0.079-2.561-0.03-5.214-0.613-7.691c-1.416-6.003-6.499-10.273-12.711-11.13c-3.783-0.523-7.521-0.388-11.128,0.945
	c-5.645,2.087-8.786,6.232-9.674,12.13C99.818,88.333,99.769,89.503,99.636,90.952z"/>
<path fill-rule="evenodd" clip-rule="evenodd" fill="#FFFFFF" d="M94.571,161.804c0.013-7.055,5.702-12.395,13.239-12.425
	c7.44-0.029,13.023,5.374,13.02,12.599c-0.004,7.099-5.679,12.421-13.215,12.397C100.116,174.354,94.559,168.997,94.571,161.804z"/>
</svg>
