<?xml version="1.0" encoding="utf-8"?>
<!-- Generator: Adobe Illustrator 16.0.0, SVG Export Plug-In . SVG Version: 6.00 Build 0)  -->
<!DOCTYPE svg PUBLIC "-//W3C//DTD SVG 1.1//EN" "http://www.w3.org/Graphics/SVG/1.1/DTD/svg11.dtd">
<svg version="1.1" id="Layer_1" xmlns="http://www.w3.org/2000/svg" xmlns:xlink="http://www.w3.org/1999/xlink" x="0px" y="0px"
	 width="226.772px" height="226.771px" viewBox="0 0 226.772 226.771" enable-background="new 0 0 226.772 226.771"
	 xml:space="preserve">
<circle fill-rule="evenodd" clip-rule="evenodd" fill="#009B91" cx="114.016" cy="113.805" r="100.994"/>
<rect x="556.246" y="32.105" fill-rule="evenodd" clip-rule="evenodd" fill="none" width="110" height="131"/>
<text transform="matrix(1 0 0 1 556.2456 40.6255)"><tspan x="0" y="0" font-family="'MyriadPro-Regular'" font-size="12">#009B91</tspan><tspan x="0" y="14.4" font-family="'MyriadPro-Regular'" font-size="12">R0 G155 B145</tspan></text>
<path fill-rule="evenodd" clip-rule="evenodd" fill="#FFFFFF" d="M101.713,88.655c0.852-9.523,1.702-19.016,2.563-28.638
	c2.467,0.203,4.808,0.383,7.146,0.592c4.974,0.444,9.945,0.905,14.919,1.354c5.969,0.538,11.937,1.075,17.906,1.604
	c4.02,0.356,8.038,0.727,12.062,1.038c2.308,0.179,2.948,1,2.716,3.331c-0.482,4.85-0.877,9.708-1.31,14.562
	c-0.536,6.008-1.08,12.016-1.611,18.025c-0.514,5.81-1.01,11.622-1.526,17.432c-0.52,5.85-1.063,11.698-1.583,17.547
	c-0.518,5.811-1.02,11.622-1.53,17.433c-0.405,4.616-0.797,9.233-1.228,13.847c-0.127,1.358-1.142,2.119-2.505,1.998
	c-9.748-0.866-19.497-1.727-29.244-2.603c-10.346-0.929-20.689-1.876-31.034-2.808c-6.326-0.57-12.654-1.123-18.98-1.697
	c-1.559-0.141-2.226-0.88-2.103-2.45c0.344-4.381,0.731-8.759,1.118-13.136c0.435-4.934,0.888-9.866,1.331-14.8
	c0.536-5.968,1.071-11.936,1.602-17.904c0.51-5.73,1.014-11.461,1.517-17.192c0.262-2.984,0.542-5.968,0.752-8.957
	c0.07-0.984,0.56-1.021,1.351-0.949c9.031,0.822,18.065,1.617,27.098,2.416C101.288,88.711,101.442,88.677,101.713,88.655z
	 M112.493,108.381c-2.979-0.093-4.455,0.873-4.705,2.799c-0.3,2.315,1.183,3.899,3.766,4.058c3.109,0.192,6.217,0.404,9.325,0.615
	c5.18,0.353,10.357,0.746,15.541,1.048c2.083,0.121,3.61-1.322,3.685-3.264c0.077-2.006-1.374-3.476-3.517-3.593
	c-1.635-0.089-3.27-0.202-4.903-0.315C125.152,109.272,118.618,108.811,112.493,108.381z M110.715,131.13
	c0,0.013-0.001,0.025-0.002,0.038c-0.398-0.027-0.797-0.063-1.196-0.081c-1.926-0.09-3.473,1.136-3.648,2.886
	c-0.209,2.091,0.941,3.6,2.99,3.885c0.711,0.099,1.43,0.141,2.147,0.191c4.144,0.292,8.288,0.579,12.433,0.866
	c3.706,0.258,7.411,0.546,11.119,0.756c1.953,0.111,3.534-1.357,3.629-3.223c0.097-1.898-1.203-3.462-3.083-3.598
	C126.974,132.263,118.844,131.701,110.715,131.13z M80.906,138.337c-0.048,2.006,0.33,2.462,2.348,2.644
	c4.256,0.383,8.516,0.738,12.774,1.099c1.375,0.115,2.216-0.57,2.337-1.942c0.391-4.417,0.77-8.834,1.137-13.253
	c0.114-1.37-0.556-2.227-1.963-2.349c-4.417-0.384-8.838-0.731-13.262-1.044c-1.49-0.105-2.196,0.484-2.326,1.945
	C81.573,129.733,81.252,134.036,80.906,138.337z M81.169,109.724c2.05,1.896,4.154,3.737,6.134,5.703
	c1.841,1.829,3.188,1.664,4.795-0.37c2.667-3.373,5.452-6.66,8.325-9.861c1.289-1.436,2.909-2.575,4.428-3.891
	c-0.998-1.252-1.963-2.463-2.948-3.699c-4.923,3.574-8.923,7.982-12.692,12.981c-1.538-1.62-2.95-3.107-4.301-4.53
	C83.718,107.225,82.61,108.312,81.169,109.724z"/>
<path fill-rule="evenodd" clip-rule="evenodd" fill="#FFFFFF" d="M99.417,59.913c-0.198,2.341-0.388,4.684-0.595,7.025
	c-0.448,5.052-0.938,10.1-1.333,15.156c-0.083,1.061-0.325,1.46-1.474,1.347c-5.921-0.58-11.849-1.088-17.775-1.617
	c-1.508-0.135-3.017-0.257-4.698-0.646c8.534-7.143,17.067-14.286,25.601-21.428C99.233,59.803,99.325,59.858,99.417,59.913z"/>
<path fill-rule="evenodd" clip-rule="evenodd" fill="#009B91" d="M112.493,108.381c6.125,0.43,12.659,0.892,19.192,1.348
	c1.634,0.114,3.269,0.227,4.903,0.315c2.143,0.117,3.594,1.587,3.517,3.593c-0.074,1.942-1.602,3.385-3.685,3.264
	c-5.184-0.302-10.361-0.695-15.541-1.048c-3.108-0.211-6.216-0.423-9.325-0.615c-2.583-0.159-4.066-1.743-3.766-4.058
	C108.038,109.254,109.514,108.288,112.493,108.381z"/>
<path fill-rule="evenodd" clip-rule="evenodd" fill="#009B91" d="M110.715,131.13c8.129,0.571,16.259,1.133,24.387,1.721
	c1.88,0.136,3.18,1.699,3.083,3.598c-0.095,1.865-1.676,3.334-3.629,3.223c-3.708-0.21-7.413-0.498-11.119-0.756
	c-4.145-0.287-8.289-0.574-12.433-0.866c-0.717-0.051-1.436-0.093-2.147-0.191c-2.049-0.285-3.199-1.794-2.99-3.885
	c0.175-1.75,1.722-2.976,3.648-2.886c0.399,0.019,0.798,0.054,1.196,0.081C110.713,131.155,110.714,131.143,110.715,131.13z"/>
<path fill-rule="evenodd" clip-rule="evenodd" fill="#009B91" d="M81.169,109.724c1.44-1.412,2.549-2.499,3.74-3.667
	c1.351,1.423,2.763,2.91,4.301,4.53c3.77-5,7.769-9.408,12.692-12.981c0.985,1.236,1.951,2.447,2.948,3.699
	c-1.519,1.316-3.139,2.455-4.428,3.891c-2.873,3.201-5.658,6.488-8.325,9.861c-1.608,2.034-2.955,2.199-4.795,0.37
	C85.324,113.46,83.22,111.62,81.169,109.724z"/>
<rect x="77.496" y="120.956" fill-rule="evenodd" clip-rule="evenodd" fill="#FFFFFF" width="24" height="27.938"/>
<path fill-rule="evenodd" clip-rule="evenodd" fill="#009B91" d="M77.169,133.655c1.44-1.412,2.549-2.499,3.74-3.667
	c1.351,1.423,2.763,2.909,4.301,4.53c3.77-5,7.769-9.408,12.692-12.982c0.985,1.236,1.951,2.447,2.948,3.699
	c-1.519,1.316-3.139,2.455-4.428,3.892c-2.873,3.2-5.658,6.487-8.325,9.86c-1.608,2.035-2.955,2.199-4.795,0.371
	C81.324,137.392,79.22,135.552,77.169,133.655z"/>
</svg>
