<?xml version="1.0" encoding="utf-8"?>
<!-- Generator: Adobe Illustrator 16.0.0, SVG Export Plug-In . SVG Version: 6.00 Build 0)  -->
<!DOCTYPE svg PUBLIC "-//W3C//DTD SVG 1.1//EN" "http://www.w3.org/Graphics/SVG/1.1/DTD/svg11.dtd">
<svg version="1.1" id="Layer_1" xmlns="http://www.w3.org/2000/svg" xmlns:xlink="http://www.w3.org/1999/xlink" x="0px" y="0px"
	 width="226.772px" height="226.771px" viewBox="0 0 226.772 226.771" enable-background="new 0 0 226.772 226.771"
	 xml:space="preserve">
<circle fill-rule="evenodd" clip-rule="evenodd" fill="#009B91" cx="114.716" cy="113.805" r="100.994"/>
<path fill-rule="evenodd" clip-rule="evenodd" fill="#FFFFFF" d="M109.647,116.062c-1.132-2.778-3.044-4.556-5.96-4.872
	c-1.221-0.133-2.576,0.036-3.734,0.449c-2.703,0.967-5.322,2.164-7.977,3.266c-0.361,0.148-0.73,0.277-1.268,0.48
	c0-0.545-0.03-0.963,0.006-1.375c0.5-5.73,1.004-11.461,1.518-17.189c0.439-4.895,0.922-9.785,1.309-14.683
	c0.078-0.977,0.324-1.32,1.334-1.224c4.932,0.472,9.867,0.886,14.801,1.323c3.02,0.268,6.039,0.543,9.227,0.829
	c0.75-8.374,1.496-16.699,2.252-25.124c2.154,0.177,4.174,0.33,6.191,0.51c5.889,0.525,11.775,1.063,17.664,1.592
	c5.967,0.537,11.936,1.07,17.904,1.605c1.113,0.1,2.229,0.195,3.342,0.304c1.359,0.133,1.941,0.75,1.834,2.123
	c-0.332,4.222-0.699,8.44-1.07,12.658c-0.439,4.974-0.898,9.945-1.348,14.917c-0.539,5.969-1.08,11.936-1.609,17.903
	c-0.512,5.771-1.008,11.542-1.52,17.312c-0.523,5.889-1.061,11.777-1.592,17.664c-0.164,1.83-0.285,3.666-0.506,5.49
	c-0.16,1.332-0.898,1.863-2.229,1.742c-9.389-0.848-18.775-1.713-28.166-2.549c-8.555-0.762-17.112-1.484-25.668-2.242
	c-4.774-0.422-9.549-0.852-14.317-1.33c-1.647-0.166-2.108-0.834-1.962-2.5c0.148-1.67,0.281-3.344,0.468-5.01
	c0.042-0.371,0.188-0.801,0.436-1.064c1.579-1.697,3.257-3.305,4.794-5.037c2.229-2.512,5.32-3.615,8.149-5.145
	c0.253-0.137,0.833,0.035,1.095,0.258c1.83,1.564,3.074,1.383,4.48-0.514c1.641-2.211,3.289-4.439,5.152-6.461
	c1.834-1.988,3.943-3.727,6.033-5.668c-0.885-1.106-1.85-2.308-2.969-3.708C113.705,112.555,111.73,114.26,109.647,116.062z
	 M152.197,104.116c0.012-1.975-1.188-3.311-3.201-3.457c-7.328-0.533-14.66-1.049-21.99-1.556c-1.813-0.126-3.426,1.231-3.605,2.974
	c-0.207,2.016,0.961,3.609,2.898,3.838c1.346,0.16,2.707,0.213,4.061,0.308c6.057,0.427,12.109,0.878,18.168,1.267
	C150.669,107.625,152.183,106.165,152.197,104.116z M125.097,118.761c-1.791,0.004-3.27,1.322-3.371,3.162
	c-0.113,2.066,1.139,3.496,3.232,3.691c0.676,0.063,1.352,0.135,2.029,0.18c6.576,0.445,13.154,0.873,19.729,1.338
	c2.053,0.145,3.695-1.166,3.889-3.203c0.17-1.785-1.176-3.41-3.098-3.592c-2.545-0.242-5.098-0.402-7.648-0.578
	C134.998,119.423,130.134,119.101,125.097,118.761z M100.403,100.733c1.864,1.753,3.717,3.454,5.522,5.203
	c1.863,1.805,3.225,1.693,4.681-0.432c2.888-4.212,6.229-8.004,10.296-11.127c0.301-0.23,0.576-0.494,0.906-0.781
	c-1.053-1.314-2.018-2.52-2.975-3.716c-4.328,3.104-7.799,6.874-11.086,11.19c-1.291-1.416-2.459-2.697-3.635-3.988
	C102.871,98.304,101.765,99.391,100.403,100.733z"/>
<path fill-rule="evenodd" clip-rule="evenodd" fill="#FFFFFF" d="M84.462,139.772c-0.088,1.186-0.132,2.293-0.26,3.389
	c-0.387,3.33,1.957,6.172,5.305,6.406c0.668,0.047,1.335,0.135,2.379,0.24c-0.57,0.422-0.865,0.633-1.154,0.854
	c-4.156,3.164-9.105,4.74-13.74,6.965c-2.697,1.295-4.385,0.889-6.508-1.141c-5.344-5.107-10.954-9.938-16.492-14.842
	c-0.76-0.672-0.847-1.096-0.179-1.92c5.636-6.961,11.21-13.969,16.829-20.941c2.56-3.176,5.742-5.523,9.556-7.014
	c2.292-0.896,4.555-1.867,7.056-2.896c-0.254,2.701-0.452,5.16-0.757,7.606c-0.038,0.309-0.599,0.646-0.985,0.801
	c-3.966,1.574-7.953,3.094-11.916,4.672c-1.201,0.479-1.658,1.334-1.422,2.316c0.317,1.32,1.523,1.846,2.926,1.268
	c2.95-1.219,5.879-2.49,8.854-3.648c5.721-2.229,11.471-4.385,17.201-6.59c1.393-0.537,2.673-0.461,3.799,0.553
	c1.011,0.91,1.482,2.141,0.898,3.352c-0.434,0.902-1.254,1.746-2.109,2.287c-1.615,1.02-3.337,1.9-5.091,2.662
	c-3.974,1.727-7.214,4.375-10.021,7.617c-0.47,0.545-1.007,1.033-1.466,1.584c-1.762,2.123-4.123,2.922-6.768,3.1
	c-1.195,0.082-2.393,0.127-3.59,0.193s-1.885,0.744-1.895,1.863c-0.012,1.141,0.744,1.992,1.96,1.928
	c2.268-0.117,4.528-0.371,6.791-0.568C83.889,139.845,84.115,139.813,84.462,139.772z"/>
<path fill-rule="evenodd" clip-rule="evenodd" fill="#FFFFFF" d="M45.439,139.259c9.68,8.592,19.232,17.074,28.864,25.623
	c-3.563,3.984-7.044,7.877-10.661,11.922c-1.942-1.748-3.865-3.361-5.654-5.111c-7.451-7.289-13.32-15.688-17.576-25.215
	c-0.348-0.779-0.291-1.279,0.279-1.895C42.261,142.888,43.773,141.138,45.439,139.259z"/>
<path fill-rule="evenodd" clip-rule="evenodd" fill="#FFFFFF" d="M116.236,58.578c-0.566,6.349-1.135,12.697-1.719,19.231
	c-6.458-0.569-12.827-1.13-19.196-1.69c-0.054-0.096-0.107-0.191-0.161-0.287c6.936-5.805,13.87-11.609,20.805-17.415
	C116.054,58.471,116.146,58.524,116.236,58.578z"/>
</svg>
