<?xml version="1.0" encoding="utf-8"?>
<!-- Generator: Adobe Illustrator 16.0.0, SVG Export Plug-In . SVG Version: 6.00 Build 0)  -->
<!DOCTYPE svg PUBLIC "-//W3C//DTD SVG 1.1//EN" "http://www.w3.org/Graphics/SVG/1.1/DTD/svg11.dtd">
<svg version="1.1" id="Layer_1" xmlns="http://www.w3.org/2000/svg" xmlns:xlink="http://www.w3.org/1999/xlink" x="0px" y="0px"
	 width="226.772px" height="226.771px" viewBox="0 0 226.772 226.771" enable-background="new 0 0 226.772 226.771"
	 xml:space="preserve">
<circle fill-rule="evenodd" clip-rule="evenodd" fill="#009B91" cx="114.716" cy="113.805" r="100.994"/>
<path fill-rule="evenodd" clip-rule="evenodd" fill="#FFFFFF" d="M142.521,113.791c-0.48-0.074-0.959-0.179-1.443-0.221
	c-7.322-0.625-14.646-1.241-21.971-1.861c-5.972-0.507-11.942-1.016-17.914-1.523c-6.09-0.519-12.178-1.057-18.271-1.539
	c-1.061-0.084-1.51-0.522-1.734-1.556c-2.729-12.595-5.5-25.182-8.255-37.771c-0.243-1.108-0.199-2.171,0.811-2.935
	c1.036-0.785,2.077-0.544,3.148-0.02c11.366,5.569,22.739,11.125,34.11,16.686c18.902,9.244,37.803,18.492,56.707,27.732
	c2.215,1.082,2.926,2.19,2.496,3.909c-0.27,1.075-1.008,1.665-1.945,2.122c-8.826,4.313-17.645,8.637-26.469,12.953
	c-11.621,5.684-23.244,11.365-34.866,17.047c-9.972,4.875-19.944,9.75-29.915,14.627c-1.088,0.531-2.158,0.588-3.152-0.186
	c-1.01-0.785-1.143-1.854-0.885-3.029c2.707-12.355,5.41-24.711,8.115-37.066c0.375-1.709,0.559-1.811,2.303-1.955
	c6.171-0.51,12.338-1.059,18.508-1.584c5.096-0.432,10.192-0.846,15.287-1.281c6.09-0.52,12.178-1.055,18.268-1.58
	c2.342-0.202,4.684-0.395,7.025-0.592C142.492,114.042,142.507,113.916,142.521,113.791z"/>
</svg>
