<?xml version="1.0" encoding="utf-8"?>
<!-- Generator: Adobe Illustrator 16.0.0, SVG Export Plug-In . SVG Version: 6.00 Build 0)  -->
<!DOCTYPE svg PUBLIC "-//W3C//DTD SVG 1.1//EN" "http://www.w3.org/Graphics/SVG/1.1/DTD/svg11.dtd">
<svg version="1.1" id="Layer_1" xmlns="http://www.w3.org/2000/svg" xmlns:xlink="http://www.w3.org/1999/xlink" x="0px" y="0px"
	 width="226.772px" height="226.771px" viewBox="0 0 226.772 226.771" enable-background="new 0 0 226.772 226.771"
	 xml:space="preserve">
<circle fill-rule="evenodd" clip-rule="evenodd" fill="#009B91" cx="114.716" cy="113.805" r="100.994"/>
<path fill-rule="evenodd" clip-rule="evenodd" fill="#FFFFFF" d="M76.492,58.775c3.211,7.111,7.252,13.098,9.261,20.434
	c-1.804,0.154-3.126,0.354-4.451,0.371c-12.774,0.158-22.783,10.154-22.828,22.902c-0.04,11.439-0.044,22.878,0.001,34.318
	c0.051,13.166,9.814,23.162,22.971,23.23c22.398,0.113,44.798,0.092,67.199-0.004c12.088-0.053,22.275-10.416,22.318-22.486
	c0.041-11.84,0.033-23.677,0.002-35.517c-0.033-12.07-10.246-22.348-22.318-22.418c-10.4-0.059-20.801,0.063-31.199-0.08
	c-1.904-0.025-3.986-0.57-5.663-1.475c-10.97-5.916-21.849-12-32.761-18.023C78.407,59.687,77.762,59.4,76.492,58.775z"/>
</svg>
