<?xml version="1.0" encoding="utf-8"?>
<!-- Generator: Adobe Illustrator 16.0.0, SVG Export Plug-In . SVG Version: 6.00 Build 0)  -->
<!DOCTYPE svg PUBLIC "-//W3C//DTD SVG 1.1//EN" "http://www.w3.org/Graphics/SVG/1.1/DTD/svg11.dtd">
<svg version="1.1" id="Layer_1" xmlns="http://www.w3.org/2000/svg" xmlns:xlink="http://www.w3.org/1999/xlink" x="0px" y="0px"
	 width="226.772px" height="226.771px" viewBox="0 0 226.772 226.771" enable-background="new 0 0 226.772 226.771"
	 xml:space="preserve">
<circle fill-rule="evenodd" clip-rule="evenodd" fill="#009B91" cx="114.716" cy="113.805" r="100.994"/>
<path fill-rule="evenodd" clip-rule="evenodd" fill="#FFFFFF" d="M154.733,67.931c-0.549,0.517-0.791,0.763-1.051,0.987
	c-2.639,2.268-5.299,4.508-7.904,6.813c-0.648,0.572-1.285,0.805-2.143,0.804c-21.357-0.021-42.716-0.016-64.074-0.016
	c-1.793,0-1.794,0.001-1.794,1.829c0,23.557-0.001,47.115,0,70.674c0,1.668,0.001,1.67,1.713,1.67c23.558,0,47.116,0,70.673,0
	c1.705,0,1.707-0.002,1.707-1.689c0-9.84,0.01-19.678-0.018-29.518c-0.002-0.861,0.217-1.516,0.799-2.145
	c2.631-2.846,5.229-5.721,8.066-8.834c0.061,0.656,0.117,0.982,0.117,1.307c0.004,13.52,0.02,27.039-0.004,40.557
	c-0.01,5.309-4.178,9.289-9.686,9.301c-7.92,0.02-15.84,0.006-23.758,0.006c-16.279,0-32.558,0.006-48.836-0.004
	c-4.957-0.004-8.656-2.969-9.612-7.686c-0.126-0.619-0.126-1.271-0.126-1.908c-0.006-24.318-0.006-48.635-0.004-72.953
	c0-5.502,3.99-9.555,9.504-9.582c7.039-0.033,14.078-0.009,21.118-0.009c17.159,0,34.317-0.007,51.476,0.016
	C152.061,67.551,153.227,67.775,154.733,67.931z"/>
<path fill-rule="evenodd" clip-rule="evenodd" fill="#FFFFFF" d="M116.208,121.133c12.588-17.245,26.961-32.798,44.297-45.642
	c3.324,4.157,6.635,8.3,10.047,12.567c-1.826,1.463-3.582,2.889-5.357,4.289c-11.586,9.145-21.605,19.826-30.639,31.445
	c-3.674,4.727-7.086,9.664-10.52,14.574c-2.912,4.164-8.746,5.004-12.327,1.441c-7.624-7.584-15.13-15.285-22.683-22.941
	c-0.08-0.082-0.129-0.197-0.129-0.197c3.723-3.829,7.419-7.632,10.999-11.314C105.372,110.652,110.75,115.854,116.208,121.133z"/>
</svg>
