<?xml version="1.0" encoding="utf-8"?>
<!-- Generator: Adobe Illustrator 16.0.0, SVG Export Plug-In . SVG Version: 6.00 Build 0)  -->
<!DOCTYPE svg PUBLIC "-//W3C//DTD SVG 1.1//EN" "http://www.w3.org/Graphics/SVG/1.1/DTD/svg11.dtd">
<svg version="1.1" id="Layer_1" xmlns="http://www.w3.org/2000/svg" xmlns:xlink="http://www.w3.org/1999/xlink" x="0px" y="0px"
	 width="226.772px" height="226.771px" viewBox="0 0 226.772 226.771" enable-background="new 0 0 226.772 226.771"
	 xml:space="preserve">
<circle fill-rule="evenodd" clip-rule="evenodd" fill="#009B91" cx="114.716" cy="113.805" r="100.994"/>
<path fill-rule="evenodd" clip-rule="evenodd" fill="#FFFFFF" d="M42.558,122.49c1.396,0,2.705,0,4.015,0
	c2.319,0,4.64,0.014,6.96-0.004c2.865-0.021,5.189-2.301,5.273-5.141c0.088-3.028-2.072-5.509-5.047-5.589
	c-3.477-0.092-6.959-0.068-10.438-0.021c-1.02,0.015-1.393-0.209-1.338-1.323c0.627-13.055,4.315-25.161,11.479-36.092
	c11.363-17.339,27.289-28.054,47.626-32.136c2.463-0.494,4.982-0.699,7.475-1.029c0.188-0.025,0.383,0.021,0.553,0.033
	c0,3.731-0.006,7.395,0.006,11.058c0.002,0.597,0.031,1.201,0.125,1.789c0.432,2.708,2.795,4.648,5.484,4.532
	c2.842-0.123,5.166-2.285,5.229-5.101c0.09-4.033,0.023-8.07,0.023-12.311c7.379,0.484,14.553,2.124,21.453,4.921
	c15.834,6.417,27.969,17.095,36.461,31.908c7.074,12.342,9.432,26.37,9.082,33.731c-0.418,0-0.846-0.001-1.273,0
	c-3.639,0.006-7.279-0.041-10.918,0.036c-2.83,0.06-4.83,2.097-5.129,5.028c-0.256,2.516,1.525,4.959,4.105,5.586
	c0.459,0.111,0.949,0.119,1.426,0.121c3.32,0.01,6.641,0.004,9.959,0.004c0.43,0,0.859,0,1.5,0
	c-2.084,15.734-8.369,29.318-19.125,40.727c-12.844,13.621-28.711,21.096-47.537,22.799c0-0.588,0-1.012,0-1.438
	c0-3.078,0.004-6.158-0.002-9.238c-0.006-3.383-2.232-5.76-5.398-5.775c-3.162-0.016-5.423,2.322-5.462,5.719
	c-0.035,3.08-0.008,6.16-0.008,9.24c0,0.428,0,0.855,0,1.287C78.204,184.535,46.742,158.9,42.558,122.49z M119.988,93.862
	c0-6.518,0.006-13.036-0.004-19.554c-0.002-2.496-1.398-4.517-3.596-5.273c-3.781-1.302-7.261,1.369-7.265,5.629
	c-0.016,14.235-0.002,28.472-0.008,42.708c-0.002,2.619,1.121,4.479,3.512,5.629c3.308,1.594,6.583,3.258,9.871,4.9
	c6.252,3.121,12.498,6.254,18.75,9.373c2.555,1.271,5.23,0.822,6.877-1.123c2.377-2.813,1.482-6.818-1.953-8.539
	c-8.354-4.186-16.715-8.357-25.092-12.494c-0.836-0.414-1.123-0.884-1.115-1.821C120.009,106.819,119.988,100.34,119.988,93.862z"/>
</svg>
