<?xml version="1.0" encoding="utf-8"?>
<!-- Generator: Adobe Illustrator 16.0.0, SVG Export Plug-In . SVG Version: 6.00 Build 0)  -->
<!DOCTYPE svg PUBLIC "-//W3C//DTD SVG 1.1//EN" "http://www.w3.org/Graphics/SVG/1.1/DTD/svg11.dtd">
<svg version="1.1" id="Layer_1" xmlns="http://www.w3.org/2000/svg" xmlns:xlink="http://www.w3.org/1999/xlink" x="0px" y="0px"
	 width="226.772px" height="226.771px" viewBox="0 0 226.772 226.771" enable-background="new 0 0 226.772 226.771"
	 xml:space="preserve">
<circle fill-rule="evenodd" clip-rule="evenodd" fill="#009B91" cx="114.716" cy="113.805" r="100.994"/>
<path fill-rule="evenodd" clip-rule="evenodd" fill="#FFFFFF" d="M114.748,66.43c17.438,0,34.875,0.061,52.311-0.045
	c3.984-0.023,7.035,3.02,7.027,7.088c-0.059,26.635-0.029,53.271-0.031,79.908c0,4.352-2.682,7.053-7,7.053
	c-34.914,0.002-69.828,0.002-104.743,0c-4.204,0-6.901-2.686-6.902-6.877c-0.001-26.756-0.001-53.512,0-80.268
	c0.001-4.195,2.683-6.857,6.907-6.857C79.792,66.43,97.27,66.43,114.748,66.43z M96.49,113.332c0,6.838-0.014,13.676,0.006,20.514
	c0.008,2.582,1.912,3.652,4.147,2.342c11.578-6.787,23.151-13.582,34.72-20.387c2.172-1.277,2.139-3.508-0.051-4.795
	c-11.469-6.736-22.971-13.418-34.386-20.244c-2.177-1.301-4.547-0.35-4.483,2.537C96.587,99.975,96.489,106.654,96.49,113.332z"/>
</svg>
